<svg width="21" height="20" viewBox="0 0 21 20" fill="none" xmlns="http://www.w3.org/2000/svg">
<g id="PwC_Funct_Icons_ChevronRight_Outline_Black_RGB 1">
<path id="Outline-v2" d="M6.86037 2.8595C6.9415 2.77437 7.05148 2.72656 7.16614 2.72656C7.28081 2.72656 7.39078 2.77437 7.47191 2.8595L14.2681 9.99889L7.47191 17.1383C7.4323 17.1829 7.38453 17.2188 7.33145 17.2436C7.27838 17.2684 7.22108 17.2818 7.16298 17.2829C7.10488 17.284 7.04717 17.2727 6.9933 17.2499C6.93942 17.227 6.89048 17.193 6.84939 17.1498C6.8083 17.1067 6.77591 17.0552 6.75415 16.9986C6.73239 16.942 6.7217 16.8814 6.72272 16.8204C6.72375 16.7594 6.73647 16.6992 6.76011 16.6434C6.78376 16.5877 6.81786 16.5375 6.86037 16.4959L13.045 9.99889L6.86037 3.50192C6.77934 3.41669 6.73383 3.30116 6.73383 3.18071C6.73383 3.06025 6.77934 2.94472 6.86037 2.8595Z" fill="white"/>
</g>
</svg>
