<svg width="14" height="14" viewBox="0 0 14 14" fill="none" xmlns="http://www.w3.org/2000/svg">
<g id="Outline-v2">
<mask id="path-1-inside-1_1619_34216" fill="white">
<path d="M14 13.3807L9.30874 8.69137C10.1892 7.65164 10.6336 6.31182 10.549 4.95203C10.4645 3.59224 9.85758 2.31777 8.85517 1.39508C7.85276 0.472398 6.53247 -0.0270615 5.17035 0.00113181C3.80822 0.0293251 2.50973 0.582988 1.54636 1.54636C0.582988 2.50973 0.0293251 3.80822 0.00113181 5.17035C-0.0270615 6.53247 0.472398 7.85276 1.39508 8.85517C2.31777 9.85758 3.59224 10.4645 4.95203 10.549C6.31182 10.6336 7.65164 10.1892 8.69137 9.30874L13.3807 14L14 13.3807ZM0.940346 5.31227C0.940346 4.44759 1.19676 3.60232 1.67715 2.88336C2.15754 2.1644 2.84034 1.60404 3.63921 1.27314C4.43807 0.942239 5.31712 0.85566 6.16519 1.02435C7.01326 1.19304 7.79227 1.60943 8.40369 2.22085C9.01512 2.83228 9.4315 3.61128 9.60019 4.45935C9.76889 5.30742 9.68231 6.18647 9.35141 6.98534C9.0205 7.7842 8.46014 8.467 7.74119 8.9474C7.02223 9.42779 6.17696 9.6842 5.31227 9.6842C4.15308 9.68317 3.04166 9.22223 2.22199 8.40256C1.40231 7.58289 0.941371 6.47147 0.940346 5.31227Z"/>
</mask>
<path d="M14 13.3807L9.30874 8.69137C10.1892 7.65164 10.6336 6.31182 10.549 4.95203C10.4645 3.59224 9.85758 2.31777 8.85517 1.39508C7.85276 0.472398 6.53247 -0.0270615 5.17035 0.00113181C3.80822 0.0293251 2.50973 0.582988 1.54636 1.54636C0.582988 2.50973 0.0293251 3.80822 0.00113181 5.17035C-0.0270615 6.53247 0.472398 7.85276 1.39508 8.85517C2.31777 9.85758 3.59224 10.4645 4.95203 10.549C6.31182 10.6336 7.65164 10.1892 8.69137 9.30874L13.3807 14L14 13.3807ZM0.940346 5.31227C0.940346 4.44759 1.19676 3.60232 1.67715 2.88336C2.15754 2.1644 2.84034 1.60404 3.63921 1.27314C4.43807 0.942239 5.31712 0.85566 6.16519 1.02435C7.01326 1.19304 7.79227 1.60943 8.40369 2.22085C9.01512 2.83228 9.4315 3.61128 9.60019 4.45935C9.76889 5.30742 9.68231 6.18647 9.35141 6.98534C9.0205 7.7842 8.46014 8.467 7.74119 8.9474C7.02223 9.42779 6.17696 9.6842 5.31227 9.6842C4.15308 9.68317 3.04166 9.22223 2.22199 8.40256C1.40231 7.58289 0.941371 6.47147 0.940346 5.31227Z" fill="#2D2D2D"/>
<path d="M14 13.3807L15.0607 14.4414L16.1215 13.3805L15.0604 12.3198L14 13.3807ZM9.30874 8.69137L8.16401 7.72204L7.2716 8.77595L8.2483 9.75225L9.30874 8.69137ZM8.69137 9.30874L9.75225 8.2483L8.77595 7.2716L7.72204 8.16401L8.69137 9.30874ZM13.3807 14L12.3198 15.0604L13.3805 16.1215L14.4414 15.0607L13.3807 14ZM0.940346 5.31227H-0.559654L-0.559653 5.3136L0.940346 5.31227ZM5.31227 9.6842L5.31095 11.1842H5.31227V9.6842ZM15.0604 12.3198L10.3692 7.63049L8.2483 9.75225L12.9396 14.4416L15.0604 12.3198ZM10.4535 9.6607C11.584 8.32557 12.1547 6.60508 12.0461 4.85896L9.05192 5.04509C9.11243 6.01855 8.79429 6.97771 8.16401 7.72204L10.4535 9.6607ZM12.0461 4.85896C11.9376 3.11284 11.1582 1.47627 9.87103 0.291442L7.83931 2.49872C8.55692 3.15926 8.9914 4.07164 9.05192 5.04509L12.0461 4.85896ZM9.87103 0.291442C8.58383 -0.893389 6.88842 -1.53475 5.13931 -1.49855L5.20139 1.50081C6.17651 1.48063 7.12169 1.83818 7.83931 2.49872L9.87103 0.291442ZM5.13931 -1.49855C3.39019 -1.46234 1.72278 -0.751378 0.4857 0.4857L2.60702 2.60702C3.29669 1.91735 4.22626 1.52099 5.20139 1.50081L5.13931 -1.49855ZM0.4857 0.4857C-0.751378 1.72278 -1.46234 3.39019 -1.49855 5.13931L1.50081 5.20139C1.52099 4.22626 1.91735 3.29669 2.60702 2.60702L0.4857 0.4857ZM-1.49855 5.13931C-1.53475 6.88842 -0.893389 8.58383 0.291442 9.87103L2.49872 7.83931C1.83818 7.12169 1.48063 6.17651 1.50081 5.20139L-1.49855 5.13931ZM0.291442 9.87103C1.47627 11.1582 3.11284 11.9376 4.85896 12.0461L5.04509 9.05192C4.07164 8.9914 3.15926 8.55692 2.49872 7.83931L0.291442 9.87103ZM4.85896 12.0461C6.60508 12.1547 8.32557 11.584 9.6607 10.4535L7.72204 8.16401C6.97771 8.79429 6.01855 9.11243 5.04509 9.05192L4.85896 12.0461ZM7.63049 10.3692L12.3198 15.0604L14.4416 12.9396L9.75225 8.2483L7.63049 10.3692ZM14.4414 15.0607L15.0607 14.4414L12.9393 12.32L12.32 12.9393L14.4414 15.0607ZM2.44035 5.31227C2.44035 4.74426 2.60878 4.189 2.92435 3.71672L0.429944 2.05C-0.215272 3.01564 -0.559654 4.15092 -0.559654 5.31227H2.44035ZM2.92435 3.71672C3.23992 3.24443 3.68846 2.87633 4.21323 2.65896L3.06518 -0.11268C1.99223 0.331752 1.07516 1.08437 0.429944 2.05L2.92435 3.71672ZM4.21323 2.65896C4.73801 2.44159 5.31546 2.38472 5.87256 2.49553L6.45783 -0.446826C5.31879 -0.673396 4.13814 -0.557112 3.06518 -0.11268L4.21323 2.65896ZM5.87256 2.49553C6.42966 2.60634 6.94139 2.87987 7.34303 3.28151L9.46435 1.16019C8.64315 0.33899 7.59687 -0.220257 6.45783 -0.446826L5.87256 2.49553ZM7.34303 3.28151C7.74468 3.68316 8.0182 4.19489 8.12902 4.75199L11.0714 4.16672C10.8448 3.02768 10.2856 1.9814 9.46435 1.16019L7.34303 3.28151ZM8.12902 4.75199C8.23983 5.30909 8.18296 5.88654 7.96559 6.41131L10.7372 7.55936C11.1817 6.48641 11.2979 5.30576 11.0714 4.16672L8.12902 4.75199ZM7.96559 6.41131C7.74822 6.93609 7.38012 7.38462 6.90783 7.70019L8.57454 10.1946C9.54017 9.54939 10.2928 8.63232 10.7372 7.55936L7.96559 6.41131ZM6.90783 7.70019C6.43554 8.01576 5.88029 8.1842 5.31227 8.1842V11.1842C6.47363 11.1842 7.60891 10.8398 8.57454 10.1946L6.90783 7.70019ZM5.3136 8.1842C4.55177 8.18353 3.82134 7.88059 3.28265 7.3419L1.16133 9.46322C2.26198 10.5639 3.75439 11.1828 5.31095 11.1842L5.3136 8.1842ZM3.28265 7.3419C2.74395 6.80321 2.44102 6.07277 2.44035 5.31095L-0.559653 5.3136C-0.558277 6.87016 0.060673 8.36257 1.16133 9.46322L3.28265 7.3419Z" fill="white" mask="url(#path-1-inside-1_1619_34216)"/>
</g>
</svg>
