<svg width="46" height="46" viewBox="0 0 46 46" fill="none" xmlns="http://www.w3.org/2000/svg">
<rect width="46" height="46" fill="#D04A02"/>
<path d="M34 33.0268L26.628 25.6579C28.0115 24.024 28.7099 21.9186 28.577 19.7818C28.4442 17.6449 27.4905 15.6422 25.9153 14.1923C24.34 12.7423 22.2653 11.9575 20.1248 12.0018C17.9844 12.0461 15.9439 12.9161 14.43 14.43C12.9161 15.9439 12.0461 17.9844 12.0018 20.1248C11.9575 22.2653 12.7423 24.34 14.1923 25.9153C15.6422 27.4905 17.6449 28.4442 19.7818 28.577C21.9186 28.7099 24.024 28.0115 25.6579 26.628L33.0268 34L34 33.0268ZM13.4777 20.3479C13.4777 18.9891 13.8806 17.6608 14.6355 16.531C15.3904 15.4012 16.4634 14.5206 17.7188 14.0006C18.9741 13.4807 20.3555 13.3446 21.6882 13.6097C23.0208 13.8748 24.245 14.5291 25.2058 15.4899C26.1666 16.4507 26.8209 17.6749 27.086 19.0076C27.3511 20.3402 27.2151 21.7216 26.6951 22.977C26.1751 24.2323 25.2945 25.3053 24.1647 26.0602C23.0349 26.8151 21.7066 27.218 20.3479 27.218C18.5263 27.2164 16.7797 26.4921 15.4917 25.204C14.2036 23.916 13.4793 22.1694 13.4777 20.3479Z" fill="white"/>
</svg>
