<svg width="21" height="20" viewBox="0 0 21 20" fill="none" xmlns="http://www.w3.org/2000/svg">
<path d="M8.13821 14.7097C7.93842 14.8962 7.78379 15.0211 7.62578 15.1123C6.85227 15.5589 5.89928 15.5589 5.12578 15.1123C4.84074 14.9477 4.56675 14.6737 4.01875 14.1258C3.47076 13.5778 3.19677 13.3038 3.0322 13.0187C2.58562 12.2452 2.58562 11.2922 3.0322 10.5187C3.19677 10.2337 3.47076 9.9597 4.01875 9.41171L6.37578 7.05469C6.92377 6.5067 7.19776 6.2327 7.4828 6.06814C8.2563 5.62155 9.2093 5.62155 9.9828 6.06814C10.2678 6.2327 10.5418 6.5067 11.0898 7.05469C11.6378 7.60268 11.9118 7.87667 12.0764 8.16171C12.523 8.93521 12.523 9.88821 12.0764 10.6617C11.9851 10.8197 11.8603 10.9744 11.6737 11.1741M9.32738 8.82778C9.14085 9.02758 9.01599 9.1822 8.92476 9.34022C8.47818 10.1137 8.47818 11.0667 8.92476 11.8402C9.08932 12.1253 9.36332 12.3993 9.91131 12.9472C10.4593 13.4952 10.7333 13.7692 11.0183 13.9338C11.7918 14.3804 12.7448 14.3804 13.5183 13.9338C13.8034 13.7692 14.0774 13.4952 14.6254 12.9472L16.9824 10.5902C17.5304 10.0422 17.8044 9.76823 17.9689 9.4832C18.4155 8.7097 18.4155 7.7567 17.9689 6.9832C17.8044 6.69816 17.5304 6.42417 16.9824 5.87618C16.4344 5.32819 16.1604 5.05419 15.8754 4.88962C15.1019 4.44304 14.1489 4.44304 13.3754 4.88962C13.2173 4.98086 13.0627 5.10572 12.8629 5.29225" stroke="white" stroke-width="1.5" stroke-linecap="round"/>
</svg>
