<svg width="32" height="32" viewBox="0 0 32 32" fill="none" xmlns="http://www.w3.org/2000/svg">
<path d="M27.0769 26.6018L19.6185 18.7699C21.0182 17.0334 21.7248 14.7956 21.5904 12.5246C21.456 10.2535 20.4911 8.12495 18.8974 6.58392C17.3037 5.04289 15.2046 4.20871 13.039 4.2558C10.8734 4.30288 8.80898 5.22759 7.27735 6.83658C5.74572 8.44556 4.86547 10.6143 4.82065 12.8892C4.77582 15.1642 5.5699 17.3693 7.03684 19.0435C8.50378 20.7176 10.53 21.7313 12.6919 21.8725C14.8538 22.0137 16.9839 21.2714 18.6369 19.801L26.0923 27.6362L27.0769 26.6018ZM6.31387 13.1263C6.31387 11.6821 6.72153 10.2704 7.48529 9.06958C8.24905 7.8688 9.33461 6.93291 10.6047 6.38025C11.8748 5.8276 13.2724 5.683 14.6207 5.96474C15.969 6.24648 17.2075 6.94191 18.1796 7.96309C19.1517 8.98427 19.8137 10.2853 20.0819 11.7017C20.35 13.1182 20.2124 14.5863 19.6863 15.9205C19.1602 17.2548 18.2693 18.3952 17.1263 19.1975C15.9832 19.9998 14.6394 20.4281 13.2646 20.4281C11.4217 20.4264 9.65467 19.6565 8.3515 18.2875C7.04833 16.9185 6.3155 15.0623 6.31387 13.1263Z" fill="#2D2D2D"/>
</svg>
