<svg width="16" height="16" viewBox="0 0 16 16" fill="none" xmlns="http://www.w3.org/2000/svg">
<g id="PwC_Funct_Icons_ChevronRight_Outline_Black_RGB 3">
<path id="Outline-v2" d="M13.712 5.08674C13.7801 5.15164 13.8184 5.23962 13.8184 5.33135C13.8184 5.42308 13.7801 5.51106 13.712 5.57597L8.0005 11.0129L2.28898 5.57597C2.25326 5.54428 2.2246 5.50606 2.20473 5.4636C2.18485 5.42114 2.17416 5.3753 2.1733 5.32882C2.17244 5.28234 2.18142 5.23618 2.19971 5.19307C2.218 5.14997 2.24522 5.11082 2.27975 5.07795C2.31428 5.04508 2.35541 5.01917 2.40069 5.00176C2.44597 4.98435 2.49447 4.9758 2.5433 4.97662C2.59212 4.97744 2.64027 4.98761 2.68488 5.00653C2.72948 5.02545 2.76963 5.05273 2.80292 5.08674L8.0005 10.0344L13.1981 5.08674C13.2663 5.02191 13.3587 4.9855 13.455 4.9855C13.5514 4.9855 13.6438 5.02191 13.712 5.08674Z" fill="#F2F2F2"/>
</g>
</svg>
