<svg width="38" height="38" viewBox="0 0 38 38" fill="none" xmlns="http://www.w3.org/2000/svg">
<path d="M21.6603 21.4609H14.8203V23.1899H21.6603V21.4609Z" fill="white"/>
<path d="M14.8203 16.2734V18.0024H25.7453H26.6003V16.2734H25.7453H14.8203Z" fill="white"/>
<path d="M14.8203 11.0859V12.8149H25.7453H26.6003V11.0859H25.7453H14.8203Z" fill="white"/>
<path d="M29.0931 5.32031H12.3275C11.8464 5.3293 11.3885 5.52882 11.0544 5.87507C10.7202 6.22132 10.5371 6.686 10.5453 7.16711V8.47431H8.90746C8.42636 8.4833 7.96849 8.68282 7.63436 9.02907C7.30022 9.37532 7.11712 9.84 7.12526 10.3211V30.8411C7.11915 31.3209 7.30315 31.7836 7.63707 32.1282C7.97099 32.4728 8.4277 32.6713 8.90746 32.6803H25.6731C26.1542 32.6713 26.612 32.4718 26.9462 32.1256C27.2803 31.7793 27.4634 31.3146 27.4553 30.8335V29.1425H29.0931C29.3311 29.1386 29.566 29.0877 29.7844 28.993C30.0028 28.8982 30.2004 28.7613 30.3659 28.5902C30.5314 28.419 30.6616 28.217 30.749 27.9955C30.8364 27.7741 30.8793 27.5376 30.8753 27.2995V7.15951C30.8814 6.67971 30.6974 6.21698 30.3634 5.87238C30.0295 5.52778 29.5728 5.32931 29.0931 5.32031ZM25.7453 30.8335C25.7476 30.8578 25.7417 30.8822 25.7286 30.9029C25.7156 30.9235 25.696 30.9392 25.6731 30.9475H8.90746C8.88449 30.9392 8.86494 30.9235 8.85187 30.9029C8.8388 30.8822 8.83296 30.8578 8.83526 30.8335V10.3135C8.83526 10.2375 8.88466 10.1995 8.90746 10.1995H10.5453V27.2995C10.5412 27.5376 10.5841 27.7741 10.6715 27.9955C10.7589 28.217 10.8891 28.419 11.0546 28.5902C11.2201 28.7613 11.4177 28.8982 11.6361 28.993C11.8545 29.0877 12.0894 29.1386 12.3275 29.1425H25.7453V30.8335ZM29.1653 27.2995C29.1653 27.3755 29.1159 27.4135 29.0931 27.4135H12.3275C12.3047 27.4135 12.2553 27.3755 12.2553 27.2995V7.15951C12.2553 7.08351 12.3047 7.04171 12.3275 7.04171H29.0931C29.1159 7.04171 29.1653 7.08351 29.1653 7.15951V27.2995Z" fill="white"/>
</svg>
