<svg width="18" height="18" viewBox="0 0 18 18" fill="none" xmlns="http://www.w3.org/2000/svg">
<path d="M6.11179 3.10289C6.17765 3.03701 6.26692 3 6.36 3C6.45308 3 6.54235 3.03701 6.60821 3.10289L12.125 8.62879L6.60821 14.1547C6.57605 14.1893 6.53728 14.217 6.49419 14.2362C6.45111 14.2554 6.4046 14.2658 6.35743 14.2666C6.31027 14.2674 6.26343 14.2588 6.21969 14.2411C6.17596 14.2234 6.13623 14.197 6.10288 14.1636C6.06952 14.1302 6.04323 14.0904 6.02556 14.0466C6.0079 14.0028 5.99922 13.9559 6.00005 13.9086C6.00089 13.8614 6.01121 13.8148 6.03041 13.7717C6.0496 13.7285 6.07728 13.6897 6.11179 13.6575L11.1322 8.62879L6.11179 3.60013C6.04602 3.53416 6.00907 3.44474 6.00907 3.35151C6.00907 3.25828 6.04602 3.16886 6.11179 3.10289Z" fill="#2D2D2D"/>
</svg>
