<svg width="17" height="13" viewBox="0 0 17 13" fill="none" xmlns="http://www.w3.org/2000/svg">
<path fill-rule="evenodd" clip-rule="evenodd" d="M4.5 1C4.22386 1 4 1.22386 4 1.5C4 1.77614 4.22386 2 4.5 2C4.77614 2 5 1.77614 5 1.5C5 1.22386 4.77614 1 4.5 1ZM3 1.5C3 0.671573 3.67157 0 4.5 0C5.32843 0 6 0.671573 6 1.5C6 2.32843 5.32843 3 4.5 3C3.67157 3 3 2.32843 3 1.5Z" fill="#2D2D2D"/>
<path fill-rule="evenodd" clip-rule="evenodd" d="M5 1H17V2H5V1Z" fill="#2D2D2D"/>
<path fill-rule="evenodd" clip-rule="evenodd" d="M0 1H4V2H0V1Z" fill="#2D2D2D"/>
<path fill-rule="evenodd" clip-rule="evenodd" d="M4.5 11C4.22386 11 4 11.2239 4 11.5C4 11.7761 4.22386 12 4.5 12C4.77614 12 5 11.7761 5 11.5C5 11.2239 4.77614 11 4.5 11ZM3 11.5C3 10.6716 3.67157 10 4.5 10C5.32843 10 6 10.6716 6 11.5C6 12.3284 5.32843 13 4.5 13C3.67157 13 3 12.3284 3 11.5Z" fill="#2D2D2D"/>
<path fill-rule="evenodd" clip-rule="evenodd" d="M5 11H17V12H5V11Z" fill="#2D2D2D"/>
<path fill-rule="evenodd" clip-rule="evenodd" d="M0 11H4V12H0V11Z" fill="#2D2D2D"/>
<path fill-rule="evenodd" clip-rule="evenodd" d="M12.5 6C12.2239 6 12 6.22386 12 6.5C12 6.77614 12.2239 7 12.5 7C12.7761 7 13 6.77614 13 6.5C13 6.22386 12.7761 6 12.5 6ZM11 6.5C11 5.67157 11.6716 5 12.5 5C13.3284 5 14 5.67157 14 6.5C14 7.32843 13.3284 8 12.5 8C11.6716 8 11 7.32843 11 6.5Z" fill="#2D2D2D"/>
<path fill-rule="evenodd" clip-rule="evenodd" d="M0 6H12V7H0V6Z" fill="#2D2D2D"/>
<path d="M16.5 6.5H13.5" stroke="#2D2D2D" stroke-linecap="square" stroke-linejoin="round"/>
</svg>
