<svg width="52" height="52" viewBox="0 0 52 52" fill="none" xmlns="http://www.w3.org/2000/svg">
<rect width="52" height="52" fill="#DEDEDE"/>
<path d="M33.516 25.3946V33.2734C33.516 33.3699 33.4777 33.4624 33.4095 33.5306C33.3413 33.5988 33.2488 33.6371 33.1523 33.6371H18.6069C18.5104 33.6371 18.418 33.5988 18.3498 33.5306C18.2816 33.4624 18.2433 33.3699 18.2433 33.2734V18.728C18.2433 18.6315 18.2816 18.539 18.3498 18.4709C18.418 18.4027 18.5104 18.3643 18.6069 18.3643H26.4517V17.2734H18.6069C18.2211 17.2734 17.8512 17.4267 17.5784 17.6995C17.3056 17.9722 17.1523 18.3422 17.1523 18.728V33.2734C17.1523 33.6592 17.3056 34.0292 17.5784 34.302C17.8512 34.5747 18.2211 34.728 18.6069 34.728H33.1523C33.5381 34.728 33.9081 34.5747 34.1809 34.302C34.4536 34.0292 34.6069 33.6592 34.6069 33.2734V25.3946H33.516Z" fill="#2D2D2D"/>
<path d="M24.3397 28.3037L33.5155 19.1353V23.1692C33.5155 23.3139 33.573 23.4526 33.6753 23.5549C33.7775 23.6572 33.9163 23.7146 34.061 23.7146C34.2056 23.7146 34.3444 23.6572 34.4466 23.5549C34.5489 23.4526 34.6064 23.3139 34.6064 23.1692V17.2734H28.7106C28.566 17.2734 28.4272 17.3309 28.325 17.4332C28.2227 17.5355 28.1652 17.6742 28.1652 17.8189C28.1652 17.9636 28.2227 18.1023 28.325 18.2046C28.4272 18.3069 28.566 18.3643 28.7106 18.3643H32.7446L23.5664 27.5401L24.3397 28.3037Z" fill="#2D2D2D"/>
</svg>
