<svg width="16" height="17" viewBox="0 0 16 17" fill="none" xmlns="http://www.w3.org/2000/svg">
<path d="M13.712 5.58674C13.7801 5.65164 13.8184 5.73962 13.8184 5.83135C13.8184 5.92308 13.7801 6.01106 13.712 6.07597L8.0005 11.5129L2.28898 6.07597C2.25326 6.04428 2.2246 6.00606 2.20473 5.9636C2.18485 5.92114 2.17416 5.8753 2.1733 5.82882C2.17244 5.78234 2.18142 5.73618 2.19971 5.69307C2.218 5.64997 2.24522 5.61082 2.27975 5.57795C2.31428 5.54508 2.35541 5.51917 2.40069 5.50176C2.44597 5.48435 2.49447 5.4758 2.5433 5.47662C2.59212 5.47744 2.64027 5.48761 2.68488 5.50653C2.72948 5.52545 2.76963 5.55273 2.80292 5.58674L8.0005 10.5344L13.1981 5.58674C13.2663 5.52191 13.3587 5.4855 13.455 5.4855C13.5514 5.4855 13.6438 5.52191 13.712 5.58674Z" fill="#2D2D2D"/>
</svg>
