<svg width="52" height="52" viewBox="0 0 52 52" fill="none" xmlns="http://www.w3.org/2000/svg">
<rect width="52" height="52" fill="#2D2D2D"/>
<path d="M33.1974 16.7315V13.6406H31.7526V16.7315H21.6389V13.6406H20.1941V16.7315H16.582V36.8224C16.5829 37.232 16.7354 37.6246 17.0061 37.9142C17.2769 38.2039 17.6439 38.367 18.0268 38.3679H35.3646C35.7476 38.367 36.1146 38.2039 36.3853 37.9142C36.6561 37.6246 36.8086 37.232 36.8095 36.8224V16.7315H33.1974ZM35.3646 36.8224H18.0268V22.9134H35.3646V36.8224ZM35.3646 21.3679H18.0268V18.277H35.3646V21.3679Z" fill="white"/>
<path d="M31.7569 26.6781L30.7358 25.5859L24.9662 31.7781L22.6577 29.3088L21.6367 30.4009L24.9694 33.9657L31.7569 26.6781Z" fill="white"/>
</svg>
