<svg width="38" height="38" viewBox="0 0 38 38" fill="none" xmlns="http://www.w3.org/2000/svg">
<path d="M18.9206 20.7039C19.7397 20.7039 20.5253 20.3804 21.1045 19.8045C21.6837 19.2287 22.0091 18.4476 22.0091 17.6332C22.0091 16.8188 21.6837 16.0378 21.1045 15.4619C20.5253 14.886 19.7397 14.5625 18.9206 14.5625C18.1014 14.5625 17.3159 14.886 16.7366 15.4619C16.1574 16.0378 15.832 16.8188 15.832 17.6332C15.832 18.4476 16.1574 19.2287 16.7366 19.8045C17.3159 20.3804 18.1014 20.7039 18.9206 20.7039ZM17.9554 16.6544C18.2139 16.4054 18.5606 16.2676 18.9206 16.2706C19.2807 16.2663 19.6279 16.4044 19.8857 16.6544C20.0105 16.7804 20.1089 16.9298 20.1751 17.0938C20.2414 17.2579 20.2743 17.4334 20.2718 17.6102C20.2708 17.9676 20.1286 18.3103 19.8759 18.5645C19.6231 18.8187 19.28 18.9639 18.9206 18.969C18.6521 18.9691 18.3897 18.8902 18.1663 18.7423C17.9429 18.5943 17.7686 18.3839 17.6654 18.1375C17.5621 17.8912 17.5346 17.6199 17.5862 17.358C17.6378 17.0962 17.7663 16.8553 17.9554 16.6659V16.6544Z" fill="#7D7D7D"/>
<path d="M29.0551 5.53907H8.78662C8.67273 5.53857 8.55986 5.56043 8.45449 5.60341C8.34913 5.6464 8.25334 5.70965 8.17262 5.78954C8.09191 5.86943 8.02787 5.96438 7.98416 6.06895C7.94046 6.17352 7.91797 6.28563 7.91797 6.39887V32.3156C7.91797 32.4289 7.94046 32.541 7.98416 32.6456C8.02787 32.7501 8.09191 32.8451 8.17262 32.925C8.25334 33.0049 8.34913 33.0681 8.45449 33.1111C8.55986 33.1541 8.67273 33.1759 8.78662 33.1754H29.0551C29.169 33.1759 29.2819 33.1541 29.3873 33.1111C29.4926 33.0681 29.5884 33.0049 29.6691 32.925C29.7498 32.8451 29.8139 32.7501 29.8576 32.6456C29.9013 32.541 29.9238 32.4289 29.9238 32.3156V6.39887C29.9238 6.28563 29.9013 6.17352 29.8576 6.06895C29.8139 5.96438 29.7498 5.86943 29.6691 5.78954C29.5884 5.70965 29.4926 5.6464 29.3873 5.60341C29.2819 5.56043 29.169 5.53857 29.0551 5.53907ZM28.1865 31.4482H9.65527V7.26634H28.1865V31.4482Z" fill="#7D7D7D"/>
<path d="M21.3679 8.63281H16.4688V10.3524H21.3679V8.63281Z" fill="#7D7D7D"/>
<path d="M12.1676 25.1289C12.1841 25.1816 12.2048 25.2329 12.2293 25.2824C12.2293 25.2824 12.2293 25.2824 12.2293 25.3131C12.2636 25.3662 12.3023 25.4163 12.3452 25.4628C12.3937 25.5088 12.4467 25.55 12.5034 25.5856L12.5536 25.6125C12.6136 25.645 12.6771 25.6707 12.7428 25.6893H12.8007C12.8689 25.7062 12.9389 25.7153 13.0092 25.7161H24.8421C24.914 25.7158 24.9855 25.7054 25.0545 25.6854L25.0969 25.6893C25.1516 25.6709 25.2046 25.6478 25.2552 25.6202L25.2938 25.5972C25.3536 25.5611 25.4081 25.5172 25.456 25.4666L25.4869 25.4321C25.5272 25.3926 25.5646 25.3502 25.5988 25.3054C25.5976 25.2952 25.5976 25.2849 25.5988 25.2747C25.6317 25.2119 25.6551 25.1447 25.6683 25.0751C25.6702 25.065 25.6702 25.0546 25.6683 25.0444C25.6721 24.9997 25.6721 24.9548 25.6683 24.9101V13.1723C25.6673 12.9439 25.5753 12.7252 25.4125 12.5641C25.2497 12.403 25.0294 12.3125 24.7997 12.3125H13.0015C12.8876 12.312 12.7747 12.3339 12.6693 12.3769C12.564 12.4198 12.4682 12.4831 12.3875 12.563C12.3068 12.6429 12.2427 12.7378 12.199 12.8424C12.1553 12.947 12.1328 13.0591 12.1328 13.1723V24.8909C12.1329 24.9568 12.1407 25.0225 12.156 25.0866L12.1676 25.1289ZM14.9511 24.0311C16.0057 23.1542 17.3366 22.6733 18.7114 22.6723C20.1418 22.6975 21.5274 23.1733 22.6686 24.0311H14.9511ZM23.9735 14.0513V22.8796C22.4843 21.6764 20.6301 21.0083 18.7114 20.9834C16.943 20.9797 15.2295 21.5938 13.8701 22.7184V14.0321L23.9735 14.0513Z" fill="#7D7D7D"/>
<path d="M21.9969 26.7578H12.1406V28.4774H21.9969V26.7578Z" fill="#7D7D7D"/>
</svg>
