<svg width="38" height="38" viewBox="0 0 38 38" fill="none" xmlns="http://www.w3.org/2000/svg">
<path d="M27.707 7.91927H25.332V9.5026H27.707V30.0859H10.2904V9.5026H12.6654V7.91927H10.2904C9.87072 7.9202 9.46854 8.08731 9.17181 8.38405C8.87507 8.68078 8.70796 9.08296 8.70703 9.5026V30.0859C8.70796 30.5056 8.87507 30.9078 9.17181 31.2045C9.46854 31.5012 9.87072 31.6683 10.2904 31.6693H27.707C28.127 31.6693 28.5297 31.5025 28.8266 31.2055C29.1236 30.9086 29.2904 30.5059 29.2904 30.0859V9.5026C29.2904 9.08268 29.1236 8.67995 28.8266 8.38302C28.5297 8.08609 28.127 7.91927 27.707 7.91927ZM14.2487 7.91927H23.7487V6.33594H14.2487V7.91927ZM14.0235 19.0026C13.8135 19.0026 13.6122 19.086 13.4637 19.2345C13.3153 19.3829 13.2318 19.5843 13.2318 19.7943C13.2318 20.0042 13.3153 20.2056 13.4637 20.3541C13.6122 20.5025 13.8135 20.5859 14.0235 20.5859H23.9739C24.1838 20.5859 24.3852 20.5025 24.5337 20.3541C24.6821 20.2056 24.7655 20.0042 24.7655 19.7943C24.7655 19.5843 24.6821 19.3829 24.5337 19.2345C24.3852 19.086 24.1838 19.0026 23.9739 19.0026H14.0235ZM14.0235 14.7804C13.8135 14.7804 13.6122 14.8638 13.4637 15.0123C13.3153 15.1607 13.2318 15.3621 13.2318 15.572C13.2318 15.782 13.3153 15.9834 13.4637 16.1318C13.6122 16.2803 13.8135 16.3637 14.0235 16.3637H23.9739C24.1838 16.3637 24.3852 16.2803 24.5337 16.1318C24.6821 15.9834 24.7655 15.782 24.7655 15.572C24.7655 15.3621 24.6821 15.1607 24.5337 15.0123C24.3852 14.8638 24.1838 14.7804 23.9739 14.7804H14.0235Z" fill="#464646"/>
</svg>
