<svg width="24" height="24" viewBox="0 0 24 24" fill="none" xmlns="http://www.w3.org/2000/svg">
<path d="M20.567 7.63401C20.6692 7.73137 20.7266 7.86334 20.7266 8.00093C20.7266 8.13853 20.6692 8.2705 20.567 8.36786L11.9998 16.5232L3.4325 8.36786C3.37891 8.32032 3.33592 8.263 3.30611 8.1993C3.2763 8.13561 3.26027 8.06686 3.25897 7.99714C3.25768 7.92742 3.27116 7.85817 3.29859 7.79352C3.32602 7.72886 3.36685 7.67013 3.41865 7.62083C3.47044 7.57152 3.53214 7.53265 3.60006 7.50654C3.66798 7.48042 3.74073 7.4676 3.81397 7.46883C3.88721 7.47006 3.95943 7.48532 4.02634 7.5137C4.09325 7.54208 4.15347 7.58299 4.20341 7.63401L11.9998 15.0555L19.7961 7.63401C19.8984 7.53677 20.037 7.48216 20.1816 7.48216C20.3261 7.48216 20.4648 7.53677 20.567 7.63401Z" fill="#2D2D2D"/>
</svg>
