<svg width="24" height="24" viewBox="0 0 24 24" fill="none" xmlns="http://www.w3.org/2000/svg">
<path d="M3.41831 16.3582C3.31616 16.2608 3.25879 16.1289 3.25879 15.9913C3.25879 15.8537 3.31616 15.7217 3.41831 15.6243L11.9856 7.46895L20.5529 15.6243C20.6064 15.6719 20.6494 15.7292 20.6792 15.7929C20.7091 15.8566 20.7251 15.9253 20.7264 15.995C20.7277 16.0648 20.7142 16.134 20.6868 16.1987C20.6593 16.2633 20.6185 16.3221 20.5667 16.3714C20.5149 16.4207 20.4532 16.4595 20.3853 16.4856C20.3174 16.5118 20.2446 16.5246 20.1714 16.5234C20.0981 16.5221 20.0259 16.5069 19.959 16.4785C19.8921 16.4501 19.8319 16.4092 19.7819 16.3582L11.9856 8.93664L4.18922 16.3582C4.08695 16.4554 3.94831 16.51 3.80376 16.51C3.65922 16.51 3.52058 16.4554 3.41831 16.3582Z" fill="#2D2D2D"/>
</svg>
