<svg width="38" height="38" viewBox="0 0 38 38" fill="none" xmlns="http://www.w3.org/2000/svg">
<path d="M24.1317 20.7103H25.8417V27.5503H12.1617V13.8703H19.0017V15.5803H13.8717V25.8403H24.1317V20.7103ZM25.8949 13.8703L27.0349 15.0749L19.4349 22.4203L15.5817 18.7039L16.7217 17.4993L19.4159 20.0985L25.8949 13.8703ZM28.4067 7.03031C28.8602 7.03031 29.2952 7.21047 29.6159 7.53116C29.9366 7.85185 30.1167 8.28679 30.1167 8.74031V30.9703C30.1167 31.4238 29.9366 31.8588 29.6159 32.1795C29.2952 32.5002 28.8602 32.6803 28.4067 32.6803H9.59672C9.14351 32.6793 8.70915 32.4988 8.38868 32.1784C8.06821 31.8579 7.88772 31.4235 7.88672 30.9703V8.74031C7.88772 8.2871 8.06821 7.85274 8.38868 7.53227C8.70915 7.2118 9.14351 7.03132 9.59672 7.03031H12.1617V8.74031H9.59672V30.9703H28.4067V8.74031H25.8417V7.03031H28.4067ZM13.8717 7.03031V5.32031H24.1317V7.03031H13.8717Z" fill="white"/>
</svg>
