<svg width="19" height="18" viewBox="0 0 19 18" fill="none" xmlns="http://www.w3.org/2000/svg">
<path d="M9.5 0.25C11.8206 0.25 14.0462 1.17187 15.6872 2.81282C17.3281 4.45376 18.25 6.67936 18.25 9C18.25 11.3206 17.3281 13.5462 15.6872 15.1872C14.0462 16.8281 11.8206 17.75 9.5 17.75C7.17936 17.75 4.95376 16.8281 3.31282 15.1872C1.67187 13.5462 0.75 11.3206 0.75 9C0.75 6.67936 1.67187 4.45376 3.31282 2.81282C4.95376 1.17187 7.17936 0.25 9.5 0.25ZM9.5 16.5C11.4891 16.5 13.3968 15.7098 14.8033 14.3033C16.2098 12.8968 17 10.9891 17 9C17 7.01088 16.2098 5.10322 14.8033 3.6967C13.3968 2.29018 11.4891 1.5 9.5 1.5C7.51088 1.5 5.60322 2.29018 4.1967 3.6967C2.79018 5.10322 2 7.01088 2 9C2 10.9891 2.79018 12.8968 4.1967 14.3033C5.60322 15.7098 7.51088 16.5 9.5 16.5ZM8.5625 11.6637L12.5587 9L8.5625 6.33625V11.6637ZM8.77 4.97125L13.6425 8.22C13.7709 8.30562 13.8762 8.4216 13.949 8.55767C14.0218 8.69374 14.0599 8.84568 14.0599 9C14.0599 9.15432 14.0218 9.30626 13.949 9.44233C13.8762 9.5784 13.7709 9.69438 13.6425 9.78L8.77 13.0287C8.62882 13.1229 8.46474 13.1769 8.29525 13.1851C8.12577 13.1933 7.95725 13.1553 7.80765 13.0753C7.65804 12.9952 7.53298 12.876 7.44578 12.7305C7.35857 12.5849 7.31251 12.4184 7.3125 12.2487V5.75C7.31251 5.58032 7.35857 5.41383 7.44578 5.26827C7.53298 5.12271 7.65804 5.00355 7.80765 4.92349C7.95725 4.84343 8.12577 4.80547 8.29525 4.81366C8.46474 4.82185 8.62882 4.87589 8.77 4.97V4.97125Z" fill="#F2F2F2"/>
</svg>
