<svg width="20" height="20" viewBox="0 0 20 20" fill="none" xmlns="http://www.w3.org/2000/svg">
<path d="M3.33301 15.8333V5.16667C3.33301 4.23325 3.33301 3.76654 3.51466 3.41002C3.67445 3.09641 3.92942 2.84144 4.24302 2.68166C4.59954 2.5 5.06625 2.5 5.99967 2.5H13.9997C14.9331 2.5 15.3998 2.5 15.7563 2.68166C16.0699 2.84144 16.3249 3.09641 16.4847 3.41002C16.6663 3.76654 16.6663 4.23325 16.6663 5.16667V14.1667H4.99967C4.0792 14.1667 3.33301 14.9129 3.33301 15.8333ZM3.33301 15.8333C3.33301 16.7538 4.0792 17.5 4.99967 17.5H16.6663M7.49967 5.83333H12.4997M7.49967 9.16667H12.4997M15.833 14.1667V17.5" stroke="#D04A02" stroke-width="1.5" stroke-linecap="round" stroke-linejoin="round"/>
</svg>
