<svg width="1326" height="243" viewBox="0 0 1326 243" fill="none" xmlns="http://www.w3.org/2000/svg">
<g clip-path="url(#clip0_1619_15373)">
<path d="M441.556 125.918L425.557 125.918L425.557 109.564H423.443L423.443 125.918L407.444 125.918L407.444 128.078L423.443 128.078L423.443 144.431H425.557L425.557 128.078L441.556 128.078L441.556 125.918Z" fill="#2D2D2D"/>
</g>
<g clip-path="url(#clip1_1619_15373)">
<path d="M918.556 125.918L902.557 125.918L902.557 109.564H900.443L900.443 125.918L884.444 125.918L884.444 128.078L900.443 128.078L900.443 144.431H902.557L902.557 128.078L918.556 128.078L918.556 125.918Z" fill="#2D2D2D"/>
</g>
<rect x="0.5" y="0.5" width="371" height="242" fill="white" stroke="#DEDEDE"/>
<rect width="372" height="55" fill="#D04A02"/>
<path d="M150.88 20.2H159.72C159.72 25.84 157.82 30.44 151.28 33.6L149.9 31.52C154.6 29.26 156.64 26.38 157.02 22.3H150.88V20.2ZM162.54 18.28H165.2V36.7H162.54V18.28ZM172.918 31.2V34.3H183.058V36.4H170.278V31.2H172.918ZM172.998 22.8V24.4H180.178V22.8H172.998ZM177.878 28.02H184.918V30.12H168.258V28.02H175.238V26.48H170.378V18.96H172.998V20.76H180.178V18.96H182.798V26.48H177.878V28.02ZM196.417 28.68L193.837 28.46C194.257 25.84 194.317 23.86 194.317 22.22H187.437V20.12H196.917V21.62C196.917 23.4 196.917 25.64 196.417 28.68ZM192.397 25.4V30.76C194.177 30.7 195.977 30.58 197.657 30.38L197.797 32.28C194.057 32.92 189.937 33 186.737 33.02L186.497 30.86C187.517 30.86 188.637 30.86 189.797 30.84V25.4H192.397ZM203.617 25.7V27.9H201.137V36.7H198.497V18.28H201.137V25.7H203.617ZM215.055 22.74H217.815V18.3H220.455V29.26H217.815V24.88H215.055V22.74ZM216.155 26.7L214.875 28.76C212.875 28.1 211.495 26.8 210.695 25.18C209.895 27.04 208.435 28.54 206.295 29.26L204.955 27.18C207.875 26.16 209.215 23.82 209.295 21.52H205.675V19.4H215.575V21.52H211.995C212.075 23.62 213.355 25.78 216.155 26.7ZM214.235 34.74C216.635 34.74 217.895 34.24 217.895 33.2C217.895 32.16 216.635 31.66 214.235 31.66C211.815 31.66 210.555 32.16 210.555 33.2C210.555 34.24 211.815 34.74 214.235 34.74ZM214.235 29.66C218.135 29.66 220.535 30.96 220.535 33.2C220.535 35.44 218.135 36.74 214.235 36.74C210.315 36.74 207.915 35.44 207.915 33.2C207.915 30.96 210.315 29.66 214.235 29.66Z" fill="white"/>
<rect x="477.5" y="0.5" width="371" height="242" fill="white" stroke="#DEDEDE"/>
<rect width="372" height="55" transform="translate(477)" fill="#EB8C00"/>
<path d="M642.14 18.32V27.6H639.5V18.32H642.14ZM638.16 25.32L636.9 27.38C634.8 26.76 633.38 25.48 632.56 23.88C631.72 25.62 630.22 27.02 628.06 27.68L626.78 25.62C629.84 24.68 631.18 22.36 631.18 20.12V18.74H633.86V20.12C633.86 22.3 635.18 24.44 638.16 25.32ZM632.52 34.54H642.62V36.58H629.9V31.52H639.54V30.44H629.88V28.42H642.16V33.4H632.52V34.54ZM657.358 24.56V21.28H649.778V24.56H657.358ZM659.938 19.2V26.64H647.178V19.2H659.938ZM661.938 28.6V30.7H654.858V36.72H652.218V30.7H645.258V28.6H661.938ZM673.417 28.68L670.837 28.46C671.257 25.84 671.317 23.86 671.317 22.22H664.437V20.12H673.917V21.62C673.917 23.4 673.917 25.64 673.417 28.68ZM669.397 25.4V30.76C671.177 30.7 672.977 30.58 674.657 30.38L674.797 32.28C671.057 32.92 666.937 33 663.737 33.02L663.497 30.86C664.517 30.86 665.637 30.86 666.797 30.84V25.4H669.397ZM680.617 25.7V27.9H678.137V36.7H675.497V18.28H678.137V25.7H680.617ZM692.055 22.74H694.815V18.3H697.455V29.26H694.815V24.88H692.055V22.74ZM693.155 26.7L691.875 28.76C689.875 28.1 688.495 26.8 687.695 25.18C686.895 27.04 685.435 28.54 683.295 29.26L681.955 27.18C684.875 26.16 686.215 23.82 686.295 21.52H682.675V19.4H692.575V21.52H688.995C689.075 23.62 690.355 25.78 693.155 26.7ZM691.235 34.74C693.635 34.74 694.895 34.24 694.895 33.2C694.895 32.16 693.635 31.66 691.235 31.66C688.815 31.66 687.555 32.16 687.555 33.2C687.555 34.24 688.815 34.74 691.235 34.74ZM691.235 29.66C695.135 29.66 697.535 30.96 697.535 33.2C697.535 35.44 695.135 36.74 691.235 36.74C687.315 36.74 684.915 35.44 684.915 33.2C684.915 30.96 687.315 29.66 691.235 29.66Z" fill="#2D2D2D"/>
<rect x="954.5" y="0.5" width="371" height="242" fill="white" stroke="#DEDEDE"/>
<rect width="372" height="55" transform="translate(954)" fill="#FFB600"/>
<path d="M1113.74 23.06H1116.62V18.3H1119.26V31.74H1116.62V25.2H1113.74V23.06ZM1114.96 27.3L1113.68 29.36C1111.66 28.7 1110.3 27.38 1109.5 25.72C1108.68 27.54 1107.24 29 1105.1 29.72L1103.76 27.62C1106.78 26.64 1108.1 24.22 1108.1 21.9V21.64H1104.48V19.54H1114.38V21.64H1110.8V21.88C1110.8 24.06 1112.06 26.32 1114.96 27.3ZM1109.76 34.3H1119.68V36.4H1107.12V30.62H1109.76V34.3ZM1134.2 23.86V21.14H1126.9V23.86H1134.2ZM1136.8 19.08V25.94H1124.3V19.08H1136.8ZM1126.82 31.06V34.3H1137.08V36.4H1124.18V31.06H1126.82ZM1122.24 27.4H1138.92V29.48H1132.14V32.62H1129.5V29.48H1122.24V27.4ZM1150.42 28.68L1147.84 28.46C1148.26 25.84 1148.32 23.86 1148.32 22.22H1141.44V20.12H1150.92V21.62C1150.92 23.4 1150.92 25.64 1150.42 28.68ZM1146.4 25.4V30.76C1148.18 30.7 1149.98 30.58 1151.66 30.38L1151.8 32.28C1148.06 32.92 1143.94 33 1140.74 33.02L1140.5 30.86C1141.52 30.86 1142.64 30.86 1143.8 30.84V25.4H1146.4ZM1157.62 25.7V27.9H1155.14V36.7H1152.5V18.28H1155.14V25.7H1157.62ZM1169.06 22.74H1171.82V18.3H1174.46V29.26H1171.82V24.88H1169.06V22.74ZM1170.16 26.7L1168.88 28.76C1166.88 28.1 1165.5 26.8 1164.7 25.18C1163.9 27.04 1162.44 28.54 1160.3 29.26L1158.96 27.18C1161.88 26.16 1163.22 23.82 1163.3 21.52H1159.68V19.4H1169.58V21.52H1166C1166.08 23.62 1167.36 25.78 1170.16 26.7ZM1168.24 34.74C1170.64 34.74 1171.9 34.24 1171.9 33.2C1171.9 32.16 1170.64 31.66 1168.24 31.66C1165.82 31.66 1164.56 32.16 1164.56 33.2C1164.56 34.24 1165.82 34.74 1168.24 34.74ZM1168.24 29.66C1172.14 29.66 1174.54 30.96 1174.54 33.2C1174.54 35.44 1172.14 36.74 1168.24 36.74C1164.32 36.74 1161.92 35.44 1161.92 33.2C1161.92 30.96 1164.32 29.66 1168.24 29.66Z" fill="#2D2D2D"/>
<rect x="32" y="90" width="6" height="6" fill="#D04A02"/>
<path d="M45.6 99V87.256H52.368V88.52H47.088V92.2H51.536V93.464H47.088V97.736H52.544V99H45.6ZM57.7903 99.208C56.1263 99.208 54.7023 98.536 53.6783 97.464L54.5743 96.456C55.4063 97.336 56.5903 97.912 57.8063 97.912C59.3423 97.912 60.2703 97.144 60.2703 95.992C60.2703 94.792 59.4223 94.408 58.3183 93.912L56.6223 93.176C55.5343 92.712 54.2383 91.88 54.2383 90.168C54.2383 88.36 55.8063 87.048 57.9343 87.048C59.3263 87.048 60.5583 87.64 61.3903 88.504L60.6063 89.448C59.8863 88.776 59.0223 88.344 57.9343 88.344C56.6063 88.344 55.7423 89.016 55.7423 90.072C55.7423 91.208 56.7663 91.64 57.6783 92.024L59.3583 92.744C60.7183 93.336 61.7743 94.136 61.7743 95.88C61.7743 97.736 60.2383 99.208 57.7903 99.208ZM68.2011 99.208C65.1291 99.208 62.9211 96.952 62.9211 93.144C62.9211 89.352 65.1931 87.048 68.2971 87.048C69.9291 87.048 71.0011 87.784 71.6731 88.504L70.8731 89.464C70.2811 88.84 69.5291 88.344 68.3291 88.344C65.9771 88.344 64.4411 90.168 64.4411 93.096C64.4411 96.056 65.8331 97.912 68.3611 97.912C69.1931 97.912 70.0091 97.656 70.4731 97.224V94.152H67.9931V92.92H71.8331V97.848C71.0811 98.632 69.7851 99.208 68.2011 99.208ZM86.9225 85.832H88.2345V100.216H86.9225V85.832ZM80.6665 86.936C82.7945 86.936 84.3145 88.888 84.3145 91.944C84.3145 95 82.7945 96.952 80.6665 96.952C78.5385 96.952 77.0185 95 77.0185 91.944C77.0185 88.888 78.5385 86.936 80.6665 86.936ZM80.6665 88.12C79.2585 88.12 78.2665 89.624 78.2665 91.944C78.2665 94.28 79.2585 95.784 80.6665 95.784C82.0585 95.784 83.0505 94.28 83.0505 91.944C83.0505 89.624 82.0585 88.12 80.6665 88.12ZM94.2812 95.768C95.3852 95.768 96.1852 94.856 96.1852 93.576C96.1852 92.328 95.3852 91.416 94.2812 91.416C93.1612 91.416 92.3772 92.328 92.3772 93.576C92.3772 94.856 93.1612 95.768 94.2812 95.768ZM94.2812 90.312C96.0572 90.312 97.3532 91.656 97.3532 93.576C97.3532 95.528 96.0572 96.856 94.2812 96.856C92.5052 96.856 91.2092 95.528 91.2092 93.576C91.2092 91.656 92.5052 90.312 94.2812 90.312ZM94.9212 86.248V88.28H97.8332V89.352H90.7132V88.28H93.6252V86.248H94.9212ZM101.625 85.816H102.889V100.168H101.625V92.952H99.7852V99.48H98.5532V86.152H99.7852V91.88H101.625V85.816ZM106.728 90.136C106.728 91.496 107.784 92.392 109.256 92.392C110.712 92.392 111.768 91.496 111.768 90.136C111.768 88.792 110.712 87.864 109.256 87.864C107.784 87.864 106.728 88.792 106.728 90.136ZM109.912 93.464V95.896C111.224 95.832 112.552 95.752 113.784 95.576L113.896 96.536C110.856 97.048 107.512 97.096 104.984 97.096L104.808 95.992C105.944 95.992 107.256 95.976 108.6 95.944V93.464C106.728 93.24 105.448 91.928 105.448 90.136C105.448 88.12 107.032 86.76 109.256 86.76C111.448 86.76 113.048 88.12 113.048 90.136C113.048 91.928 111.752 93.224 109.912 93.464ZM118.28 91.752V92.856H116.008V100.184H114.696V85.816H116.008V91.752H118.28ZM125.435 96.152V95.08H135.035V100.2H133.707V96.152H125.435ZM130.651 91.16H133.707V89H130.651C130.747 89.336 130.811 89.688 130.811 90.072C130.811 90.472 130.747 90.824 130.651 91.16ZM127.115 92.424C128.523 92.424 129.563 91.448 129.563 90.072C129.563 88.728 128.523 87.752 127.115 87.752C125.723 87.752 124.683 88.728 124.683 90.072C124.683 91.448 125.723 92.424 127.115 92.424ZM133.707 85.848L135.035 85.832V94.296H133.707V92.232H130.075C129.403 93.048 128.363 93.544 127.115 93.544C125.003 93.544 123.435 92.104 123.435 90.072C123.435 88.056 125.003 86.632 127.115 86.632C128.363 86.632 129.419 87.128 130.091 87.944H133.707V85.848ZM142.266 87.08V89.656C142.266 92.184 143.898 94.792 145.914 95.8L145.098 96.84C143.578 96.024 142.282 94.344 141.626 92.376C141.002 94.472 139.674 96.264 138.058 97.128L137.274 96.072C139.338 95.016 140.97 92.264 140.97 89.656V87.08H142.266ZM150.858 91.656V92.744H148.49V100.184H147.178V85.848H148.49V91.656H150.858ZM152.041 102.04L151.689 101.176C152.697 100.728 153.289 99.944 153.289 99C153.225 99.016 153.177 99.016 153.113 99.016C152.553 99.016 152.041 98.664 152.041 97.992C152.041 97.368 152.553 96.968 153.145 96.968C153.913 96.968 154.377 97.624 154.377 98.696C154.377 100.232 153.481 101.432 152.041 102.04ZM171.784 92.712H165.912V95.336H170.184V100.168H168.872V96.392H160.136V95.336H164.6V92.712H158.76V91.64H168.424C168.808 89.912 168.808 88.648 168.808 87.576H160.424V86.52H170.104V87.56C170.104 88.632 170.104 89.944 169.752 91.64H171.784V92.712ZM175.015 87.576V95.32C176.391 95.304 177.911 95.208 179.623 94.872L179.751 96.008C177.815 96.376 176.167 96.456 174.615 96.456H173.703V87.576H175.015ZM183.911 85.832H185.175V100.168H183.911V92.76H181.879V99.448H180.647V86.152H181.879V91.672H183.911V85.832ZM189.333 90.12C189.333 91.464 190.421 92.392 191.877 92.392C193.381 92.392 194.453 91.464 194.453 90.12C194.453 88.792 193.381 87.88 191.877 87.88C190.421 87.88 189.333 88.792 189.333 90.12ZM192.533 93.464V95.896C193.925 95.816 195.349 95.704 196.677 95.496L196.789 96.472C193.557 97.064 190.085 97.096 187.493 97.096L187.333 95.992C188.485 95.992 189.813 95.992 191.221 95.944V93.464C189.365 93.224 188.053 91.928 188.053 90.12C188.053 88.12 189.669 86.76 191.877 86.76C194.133 86.76 195.733 88.12 195.733 90.12C195.733 91.928 194.437 93.24 192.533 93.464ZM197.621 85.816H198.933V100.216H197.621V85.816ZM211.977 99.16C214.217 99.16 215.545 98.6 215.545 97.592C215.545 96.584 214.217 96.024 211.977 96.024C209.705 96.024 208.377 96.584 208.377 97.592C208.377 98.6 209.705 99.16 211.977 99.16ZM211.977 95C215.017 95 216.873 95.928 216.873 97.592C216.873 99.256 215.017 100.184 211.977 100.184C208.905 100.184 207.049 99.256 207.049 97.592C207.049 95.928 208.905 95 211.977 95ZM212.633 92.92H218.473V93.976H205.481V92.92H211.321V91.256H207.113V86.488H216.857V87.544H208.425V90.2H216.953V91.256H212.633V92.92ZM228.231 87.448V88.504H219.767V87.448H223.335V85.704H224.647V87.448H228.231ZM221.815 91.752C221.815 92.696 222.679 93.304 223.991 93.304C225.303 93.304 226.183 92.696 226.183 91.752C226.183 90.824 225.303 90.216 223.991 90.216C222.679 90.216 221.815 90.824 221.815 91.752ZM227.431 91.752C227.431 93.304 226.039 94.296 223.991 94.296C221.943 94.296 220.567 93.304 220.567 91.752C220.567 90.216 221.943 89.224 223.991 89.224C226.039 89.224 227.431 90.216 227.431 91.752ZM226.359 99.16C228.455 99.16 229.735 98.616 229.735 97.688C229.735 96.76 228.455 96.216 226.359 96.216C224.263 96.216 222.983 96.76 222.983 97.688C222.983 98.616 224.263 99.16 226.359 99.16ZM226.359 95.208C229.239 95.208 231.031 96.104 231.031 97.688C231.031 99.256 229.239 100.168 226.359 100.168C223.463 100.168 221.687 99.256 221.687 97.688C221.687 96.104 223.463 95.208 226.359 95.208ZM232.935 89.384H230.855V91.368H232.935V92.456H230.855V95.064H229.543V85.832H230.855V88.312H232.935V89.384Z" fill="#2D2D2D"/>
<rect x="32" y="118" width="6" height="6" fill="#D04A02"/>
<path d="M45.6 127V115.256H52.368V116.52H47.088V120.2H51.536V121.464H47.088V125.736H52.544V127H45.6ZM57.7903 127.208C56.1263 127.208 54.7023 126.536 53.6783 125.464L54.5743 124.456C55.4063 125.336 56.5903 125.912 57.8063 125.912C59.3423 125.912 60.2703 125.144 60.2703 123.992C60.2703 122.792 59.4223 122.408 58.3183 121.912L56.6223 121.176C55.5343 120.712 54.2383 119.88 54.2383 118.168C54.2383 116.36 55.8063 115.048 57.9343 115.048C59.3263 115.048 60.5583 115.64 61.3903 116.504L60.6063 117.448C59.8863 116.776 59.0223 116.344 57.9343 116.344C56.6063 116.344 55.7423 117.016 55.7423 118.072C55.7423 119.208 56.7663 119.64 57.6783 120.024L59.3583 120.744C60.7183 121.336 61.7743 122.136 61.7743 123.88C61.7743 125.736 60.2383 127.208 57.7903 127.208ZM68.2011 127.208C65.1291 127.208 62.9211 124.952 62.9211 121.144C62.9211 117.352 65.1931 115.048 68.2971 115.048C69.9291 115.048 71.0011 115.784 71.6731 116.504L70.8731 117.464C70.2811 116.84 69.5291 116.344 68.3291 116.344C65.9771 116.344 64.4411 118.168 64.4411 121.096C64.4411 124.056 65.8331 125.912 68.3611 125.912C69.1931 125.912 70.0091 125.656 70.4731 125.224V122.152H67.9931V120.92H71.8331V125.848C71.0811 126.632 69.7851 127.208 68.2011 127.208ZM86.9865 117.544H83.4025C82.4745 119.848 80.2985 121.528 77.2105 122.424L76.6825 121.384C80.1065 120.36 82.2345 118.456 82.4745 115.976H77.4185V114.92H83.8985C83.8985 115.448 83.8345 115.976 83.7385 116.472H86.9865V113.848H88.3145V122.424H86.9865V120.536H83.2265V119.464H86.9865V117.544ZM83.6265 127.096C85.7385 127.096 87.0825 126.44 87.0825 125.352C87.0825 124.28 85.7385 123.624 83.6265 123.624C81.5145 123.624 80.1705 124.28 80.1705 125.352C80.1705 126.44 81.5145 127.096 83.6265 127.096ZM83.6265 122.584C86.5225 122.584 88.3785 123.624 88.3785 125.352C88.3785 127.08 86.5225 128.12 83.6265 128.12C80.7305 128.12 78.8745 127.08 78.8745 125.352C78.8745 123.624 80.7305 122.584 83.6265 122.584ZM92.2012 118.088C92.2012 119.432 93.2572 120.392 94.6492 120.392C96.0572 120.392 97.0812 119.432 97.0812 118.088C97.0812 116.76 96.0572 115.8 94.6492 115.8C93.2572 115.8 92.2012 116.76 92.2012 118.088ZM101.225 116.968H98.1532C98.2652 117.304 98.3292 117.672 98.3292 118.088C98.3292 118.488 98.2652 118.856 98.1372 119.208H101.225V116.968ZM101.225 120.28H97.5452C96.8892 121.048 95.8652 121.512 94.6492 121.512C92.5212 121.512 90.9532 120.104 90.9532 118.088C90.9532 116.088 92.5212 114.696 94.6492 114.696C95.8652 114.696 96.8892 115.16 97.5452 115.896H101.225V113.832H102.553V122.328H101.225V120.28ZM97.8012 127.128C99.9932 127.128 101.305 126.488 101.305 125.416C101.305 124.328 99.9932 123.688 97.8012 123.688C95.6412 123.688 94.3292 124.328 94.3292 125.416C94.3292 126.488 95.6412 127.128 97.8012 127.128ZM97.8012 122.664C100.761 122.664 102.601 123.672 102.601 125.416C102.601 127.16 100.761 128.168 97.8012 128.168C94.8572 128.168 93.0332 127.16 93.0332 125.416C93.0332 123.672 94.8572 122.664 97.8012 122.664ZM109.624 114.888C111.864 114.888 113.464 116.248 113.464 118.264C113.464 120.264 111.864 121.64 109.624 121.64C107.4 121.64 105.784 120.264 105.784 118.264C105.784 116.248 107.4 114.888 109.624 114.888ZM109.624 116.008C108.152 116.008 107.064 116.92 107.064 118.264C107.064 119.592 108.152 120.52 109.624 120.52C111.112 120.52 112.184 119.592 112.184 118.264C112.184 116.92 111.112 116.008 109.624 116.008ZM115.352 113.832H116.664V128.216H115.352V113.832ZM105.224 125.064L105.064 123.96C107.672 123.96 111.272 123.944 114.408 123.464L114.52 124.44C111.288 125.032 107.816 125.064 105.224 125.064ZM123.755 115.688H129.355C129.355 119.384 128.059 122.808 123.979 125.112L123.211 124.168C126.507 122.328 127.867 119.736 128.059 116.76H123.755V115.688ZM134.123 113.832H135.387V128.184H134.123V120.68H132.171V127.464H130.939V114.216H132.171V119.608H134.123V113.832ZM145.45 120.056L145.626 121.112C143.546 121.512 141.754 121.624 139.37 121.624H138.314V114.552H139.61V120.552C141.818 120.536 143.53 120.424 145.45 120.056ZM141.322 123.96V126.936H147.978V123.96H141.322ZM140.042 127.992V122.92H149.274V127.992H140.042ZM147.946 113.832H149.274V122.264H147.946V119H143.914V117.976H147.946V116.472H143.914V115.448H147.946V113.832Z" fill="#2D2D2D"/>
<rect x="32" y="146" width="6" height="6" fill="#D04A02"/>
<path d="M45.6 155V143.256H52.368V144.52H47.088V148.2H51.536V149.464H47.088V153.736H52.544V155H45.6ZM57.7903 155.208C56.1263 155.208 54.7023 154.536 53.6783 153.464L54.5743 152.456C55.4063 153.336 56.5903 153.912 57.8063 153.912C59.3423 153.912 60.2703 153.144 60.2703 151.992C60.2703 150.792 59.4223 150.408 58.3183 149.912L56.6223 149.176C55.5343 148.712 54.2383 147.88 54.2383 146.168C54.2383 144.36 55.8063 143.048 57.9343 143.048C59.3263 143.048 60.5583 143.64 61.3903 144.504L60.6063 145.448C59.8863 144.776 59.0223 144.344 57.9343 144.344C56.6063 144.344 55.7423 145.016 55.7423 146.072C55.7423 147.208 56.7663 147.64 57.6783 148.024L59.3583 148.744C60.7183 149.336 61.7743 150.136 61.7743 151.88C61.7743 153.736 60.2383 155.208 57.7903 155.208ZM68.2011 155.208C65.1291 155.208 62.9211 152.952 62.9211 149.144C62.9211 145.352 65.1931 143.048 68.2971 143.048C69.9291 143.048 71.0011 143.784 71.6731 144.504L70.8731 145.464C70.2811 144.84 69.5291 144.344 68.3291 144.344C65.9771 144.344 64.4411 146.168 64.4411 149.096C64.4411 152.056 65.8331 153.912 68.3611 153.912C69.1931 153.912 70.0091 153.656 70.4731 153.224V150.152H67.9931V148.92H71.8331V153.848C71.0811 154.632 69.7851 155.208 68.2011 155.208ZM77.7705 148.808L77.2745 147.768C79.7705 147.4 82.2505 145.752 82.2505 143.864V143.784H77.7225V142.728H88.2025V143.784H83.7065V143.864C83.7065 145.752 86.1865 147.4 88.7145 147.768L88.2025 148.808C85.9785 148.424 83.8505 147.224 82.9865 145.528C82.1065 147.224 79.9945 148.424 77.7705 148.808ZM89.4665 150.008L89.4825 151.08H83.6105V156.184H82.2985V151.08H76.5065V150.008H89.4665ZM95.2252 149.88V153.256H99.2252V149.88C98.6172 150.024 97.9292 150.104 97.2092 150.104C96.5052 150.104 95.8172 150.024 95.2252 149.88ZM97.2092 143.768C94.9052 143.768 93.2572 144.824 93.2572 146.424C93.2572 148.024 94.9052 149.08 97.2092 149.08C99.5132 149.08 101.177 148.024 101.177 146.424C101.177 144.824 99.5132 143.768 97.2092 143.768ZM100.537 153.256H103.753V154.344H90.7132V153.256H93.9132V149.384C92.7132 148.76 91.9932 147.72 91.9932 146.424C91.9932 144.184 94.1692 142.744 97.2092 142.744C100.265 142.744 102.425 144.184 102.425 146.424C102.425 147.72 101.721 148.744 100.537 149.368V153.256ZM119.004 143.784V143.624H110.524V142.568H120.3V143.784C120.3 144.936 120.3 146.104 119.9 147.576L118.62 147.432C119.004 145.96 119.004 144.904 119.004 143.784ZM115.404 155.144C117.66 155.144 119.1 154.536 119.1 153.544C119.1 152.52 117.66 151.912 115.404 151.912C113.164 151.912 111.724 152.52 111.724 153.544C111.724 154.536 113.164 155.144 115.404 155.144ZM115.404 150.904C118.46 150.904 120.412 151.88 120.412 153.544C120.412 155.176 118.46 156.168 115.404 156.168C112.348 156.168 110.412 155.176 110.412 153.544C110.412 151.88 112.348 150.904 115.404 150.904ZM115.612 148.52H121.916V149.576H109.004V148.52H114.3V145.768H115.612V148.52ZM128.299 143.08V145.656C128.299 148.28 130.011 150.92 132.139 151.88L131.355 152.936C129.723 152.136 128.347 150.44 127.659 148.392C127.003 150.552 125.627 152.344 123.947 153.208L123.147 152.136C125.259 151.128 127.003 148.376 127.003 145.656V143.08H128.299ZM133.643 141.832H134.955V156.216H133.643V141.832ZM144.602 147.224C145.546 147.224 146.298 147.976 146.298 148.92C146.298 149.864 145.546 150.616 144.602 150.616C143.658 150.616 142.906 149.864 142.906 148.92C142.906 147.976 143.658 147.224 144.602 147.224ZM163.466 150.68V148.04H161.098V146.968H163.466V145.464H161.098V144.392H163.466V141.848H164.794V150.68H163.466ZM156.09 143.976V148.712C156.794 148.696 157.53 148.664 158.25 148.632V143.976H156.09ZM161.402 148.376L161.482 149.352C158.714 149.784 155.482 149.832 153.162 149.832L153.018 148.744C153.562 148.744 154.186 148.744 154.826 148.728V143.976H153.402V142.92H160.954V143.976H159.53V148.552C160.17 148.504 160.81 148.456 161.402 148.376ZM160.058 155.144C162.234 155.144 163.53 154.568 163.53 153.56C163.53 152.584 162.234 151.992 160.058 151.992C157.882 151.992 156.586 152.584 156.586 153.56C156.586 154.568 157.882 155.144 160.058 155.144ZM160.058 150.984C163.018 150.984 164.842 151.912 164.842 153.56C164.842 155.224 163.018 156.168 160.058 156.168C157.082 156.168 155.274 155.224 155.274 153.56C155.274 151.912 157.082 150.984 160.058 150.984ZM167.977 143.368H174.537C174.537 147.448 172.665 151.144 168.025 153.464L167.305 152.44C170.969 150.6 172.937 147.848 173.241 144.456H167.977V143.368ZM180.553 147.656V148.744H178.249V156.184H176.937V141.832H178.249V147.656H180.553ZM186.103 142.888C188.343 142.888 189.943 144.248 189.943 146.264C189.943 148.264 188.343 149.64 186.103 149.64C183.879 149.64 182.263 148.264 182.263 146.264C182.263 144.248 183.879 142.888 186.103 142.888ZM186.103 144.008C184.631 144.008 183.543 144.92 183.543 146.264C183.543 147.592 184.631 148.52 186.103 148.52C187.591 148.52 188.663 147.592 188.663 146.264C188.663 144.92 187.591 144.008 186.103 144.008ZM191.831 141.832H193.143V156.216H191.831V141.832ZM181.703 153.064L181.543 151.96C184.151 151.96 187.751 151.944 190.887 151.464L190.999 152.44C187.767 153.032 184.295 153.064 181.703 153.064ZM210.122 141.832H211.434V156.216H210.122V141.832ZM203.866 142.936C205.994 142.936 207.514 144.888 207.514 147.944C207.514 151 205.994 152.952 203.866 152.952C201.738 152.952 200.218 151 200.218 147.944C200.218 144.888 201.738 142.936 203.866 142.936ZM203.866 144.12C202.458 144.12 201.466 145.624 201.466 147.944C201.466 150.28 202.458 151.784 203.866 151.784C205.258 151.784 206.25 150.28 206.25 147.944C206.25 145.624 205.258 144.12 203.866 144.12ZM217.481 151.768C218.585 151.768 219.385 150.856 219.385 149.576C219.385 148.328 218.585 147.416 217.481 147.416C216.361 147.416 215.577 148.328 215.577 149.576C215.577 150.856 216.361 151.768 217.481 151.768ZM217.481 146.312C219.257 146.312 220.553 147.656 220.553 149.576C220.553 151.528 219.257 152.856 217.481 152.856C215.705 152.856 214.409 151.528 214.409 149.576C214.409 147.656 215.705 146.312 217.481 146.312ZM218.121 142.248V144.28H221.033V145.352H213.913V144.28H216.825V142.248H218.121ZM224.825 141.816H226.089V156.168H224.825V148.952H222.985V155.48H221.753V142.152H222.985V147.88H224.825V141.816Z" fill="#2D2D2D"/>
<rect x="32" y="174" width="6" height="6" fill="#D04A02"/>
<path d="M45.696 171.384H52.416C52.416 175.528 50.512 179.176 45.744 181.512L45.04 180.44C48.896 178.6 50.816 175.848 51.088 172.44H45.696V171.384ZM55.312 169.832H56.624V184.184H55.312V169.832ZM71.2948 171.48V172.536H59.7588V171.48H64.9108V169.752H66.2388V171.48H71.2948ZM68.8628 175.752C68.8628 174.872 67.6788 174.36 65.5828 174.36C63.4868 174.36 62.2708 174.872 62.2708 175.752C62.2708 176.632 63.4868 177.144 65.5828 177.144C67.6788 177.144 68.8628 176.632 68.8628 175.752ZM60.9108 175.752C60.9108 174.216 62.6548 173.352 65.5828 173.352C68.4788 173.352 70.2228 174.216 70.2228 175.752C70.2228 177.288 68.4788 178.136 65.5828 178.136C62.6548 178.136 60.9108 177.288 60.9108 175.752ZM72.0948 179.144V180.216H66.2388V184.2H64.9108V180.216H59.0868V179.144H72.0948ZM83.8215 173.528H80.5095V175.56H83.8215V173.528ZM79.2135 176.952V174.36H75.3415V176.952H79.2135ZM80.5095 176.632V178.008H74.0455V170.792H75.3415V173.32H79.2135V170.792H80.5095V172.472H83.8215V169.848H85.1495V180.456H83.8215V176.632H80.5095ZM77.2295 182.792H85.4855V183.864H75.9175V179.416H77.2295V182.792ZM96.2203 171.576V172.616H87.6443V171.576H91.2923V169.848H92.6043V171.576H96.2203ZM89.8043 176.12C89.8043 177.112 90.6683 177.752 91.9483 177.752C93.2283 177.752 94.0923 177.112 94.0923 176.12C94.0923 175.128 93.2283 174.472 91.9483 174.472C90.6683 174.472 89.8043 175.128 89.8043 176.12ZM92.6043 178.744V180.264C93.9003 180.2 95.2283 180.104 96.4603 179.912L96.5403 180.888C93.4683 181.432 90.0923 181.464 87.5803 181.464L87.4043 180.36C88.5563 180.36 89.9003 180.36 91.2923 180.312V178.744C89.6443 178.536 88.5563 177.544 88.5563 176.12C88.5563 174.504 89.9483 173.464 91.9483 173.464C93.9483 173.464 95.3403 174.504 95.3403 176.12C95.3403 177.544 94.2523 178.536 92.6043 178.744ZM100.86 175.928V177.032H98.6203V184.184H97.3083V169.832H98.6203V175.928H100.86ZM105.051 179.816C106.171 179.816 106.907 178.36 106.907 176.008C106.907 173.704 106.171 172.248 105.051 172.248C103.899 172.248 103.179 173.704 103.179 176.008C103.179 178.36 103.899 179.816 105.051 179.816ZM109.899 175.416V170.152H111.147V183.48H109.899V176.488H108.091C107.979 179.304 106.811 181.032 105.051 181.032C103.179 181.032 101.979 179.112 101.979 176.008C101.979 172.952 103.179 171.032 105.051 171.032C106.779 171.032 107.931 172.712 108.091 175.416H109.899ZM112.747 169.832H113.995V184.184H112.747V169.832ZM120.948 172.648V179.56C122.868 179.544 124.228 179.464 125.796 179.128L125.908 180.216C124.196 180.584 122.74 180.648 120.596 180.648H119.652V171.576H124.996V172.648H120.948ZM130.068 169.832H131.332V184.184H130.068V176.664H128.036V183.464H126.804V170.152H128.036V175.592H130.068V169.832ZM141.891 171.592V172.648H133.427V171.592H136.995V169.832H138.307V171.592H141.891ZM135.475 176.104C135.475 177.112 136.355 177.752 137.651 177.752C138.947 177.752 139.843 177.112 139.843 176.104C139.843 175.112 138.947 174.472 137.651 174.472C136.355 174.472 135.475 175.112 135.475 176.104ZM141.091 176.104C141.091 177.72 139.683 178.776 137.651 178.776C135.619 178.776 134.227 177.72 134.227 176.104C134.227 174.504 135.619 173.448 137.651 173.448C139.683 173.448 141.091 174.504 141.091 176.104ZM136.899 179.752V182.792H145.155V183.864H135.587V179.752H136.899ZM144.515 174.568H146.627V175.672H144.515V180.6H143.203V169.832H144.515V174.568ZM152.524 172.648V179.56C154.444 179.544 155.804 179.464 157.372 179.128L157.484 180.216C155.772 180.584 154.316 180.648 152.172 180.648H151.228V171.576H156.572V172.648H152.524ZM161.644 169.832H162.908V184.184H161.644V176.664H159.612V183.464H158.38V170.152H159.612V175.592H161.644V169.832ZM164.954 176.808H177.914V177.864H164.954V176.808ZM171.434 179.064C174.506 179.064 176.346 179.976 176.346 181.624C176.346 183.256 174.506 184.184 171.434 184.184C168.378 184.184 166.522 183.256 166.522 181.624C166.522 179.976 168.378 179.064 171.434 179.064ZM171.434 180.072C169.178 180.072 167.85 180.648 167.85 181.624C167.85 182.6 169.178 183.16 171.434 183.16C173.69 183.16 175.018 182.6 175.018 181.624C175.018 180.648 173.69 180.072 171.434 180.072ZM171.434 170.2C174.538 170.2 176.474 171.208 176.474 172.936C176.474 174.648 174.538 175.656 171.434 175.656C168.346 175.656 166.394 174.648 166.394 172.936C166.394 171.208 168.346 170.2 171.434 170.2ZM171.434 171.224C169.162 171.224 167.738 171.864 167.738 172.936C167.738 173.992 169.162 174.632 171.434 174.632C173.706 174.632 175.13 173.992 175.13 172.936C175.13 171.864 173.706 171.224 171.434 171.224ZM186.345 181.256H192.217V182.328H179.177V181.256H185.033V177.416H180.777V171.064H182.089V176.36H190.729V177.416H186.345V181.256ZM201.016 176.6L201.144 177.656C199.384 177.96 197.928 178.008 195.064 178.008H194.04V173.752H198.904V171.768H193.992V170.696H200.184V174.76H195.32V176.936C197.976 176.936 199.352 176.872 201.016 176.6ZM195.64 180.504V179.432H205.256V184.2H203.928V180.504H195.64ZM203.928 169.848H205.256V178.664H203.928V176.008H201.128V174.952H203.928V173.032H201.128V171.96H203.928V169.848Z" fill="#2D2D2D"/>
<rect x="32" y="202" width="6" height="6" fill="#D04A02"/>
<path d="M49.968 200.392V202.216C49.968 204.648 51.696 207.128 53.808 208.024L53.072 209.08C51.408 208.312 50 206.664 49.312 204.696C48.656 206.792 47.248 208.6 45.616 209.432L44.848 208.376C46.912 207.4 48.656 204.696 48.656 202.216V200.392H45.328V199.304H53.344V200.392H49.968ZM55.28 197.848H56.592V212.184H55.28V197.848ZM71.2788 202.552L70.7828 203.608C68.5908 203.24 66.4788 202.104 65.5668 200.456C64.6708 202.104 62.5588 203.24 60.3668 203.608L59.8708 202.552C62.4148 202.2 64.8948 200.6 64.8948 198.696V198.056H66.2388V198.696C66.2388 200.6 68.7188 202.2 71.2788 202.552ZM60.5268 208.568V207.496H70.4628V212.2H69.1508V208.568H60.5268ZM66.2228 205.032H72.1108V206.104H59.0868V205.032H64.9108V202.84H66.2228V205.032ZM74.0935 199.368H80.6535C80.6535 203.448 78.7815 207.144 74.1415 209.464L73.4215 208.44C77.0855 206.6 79.0535 203.848 79.3575 200.456H74.0935V199.368ZM86.6695 203.656V204.744H84.3655V212.184H83.0535V197.832H84.3655V203.656H86.6695ZM99.0683 201.832V202.888H89.3243V198.136H90.6363V201.832H99.0683ZM94.0443 211.112C96.2843 211.112 97.6283 210.52 97.6283 209.528C97.6283 208.504 96.3003 207.928 94.0443 207.928C91.7883 207.928 90.4603 208.504 90.4603 209.528C90.4603 210.52 91.7883 211.112 94.0443 211.112ZM94.0443 206.904C97.1003 206.904 98.9563 207.848 98.9563 209.528C98.9563 211.192 97.1003 212.136 94.0443 212.136C90.9883 212.136 89.1323 211.192 89.1323 209.528C89.1323 207.848 90.9883 206.904 94.0443 206.904ZM87.5803 204.552H100.556V205.624H87.5803V204.552ZM107.781 207.944V210.936H114.997V207.944H107.781ZM106.501 211.992V206.888H116.293V211.992H106.501ZM115.861 203.88H117.925V204.936H104.885V203.88H114.533C114.949 202.088 114.949 200.776 114.949 199.656H106.549V198.6H116.245V199.656C116.245 200.776 116.245 202.088 115.861 203.88ZM125.62 199.144C123.348 199.144 121.924 199.752 121.924 200.808C121.924 201.848 123.348 202.472 125.62 202.472C127.892 202.472 129.316 201.848 129.316 200.808C129.316 199.752 127.892 199.144 125.62 199.144ZM125.62 203.48C122.516 203.48 120.58 202.504 120.58 200.808C120.58 199.112 122.516 198.12 125.62 198.12C128.74 198.12 130.66 199.112 130.66 200.808C130.66 202.504 128.74 203.48 125.62 203.48ZM127.572 207.24V205.608H123.716V207.224C124.292 207.128 124.916 207.08 125.62 207.08C126.34 207.08 126.996 207.128 127.572 207.24ZM129.204 209.624C129.204 208.664 127.86 208.088 125.62 208.088C123.364 208.088 122.036 208.664 122.036 209.624C122.036 210.616 123.364 211.16 125.62 211.16C127.86 211.16 129.204 210.616 129.204 209.624ZM132.116 205.608H128.884V207.592C129.94 208.008 130.532 208.712 130.532 209.624C130.532 211.272 128.692 212.184 125.62 212.184C122.548 212.184 120.708 211.272 120.708 209.624C120.708 208.696 121.332 207.976 122.404 207.576V205.608H119.14V204.552H132.116V205.608ZM138.035 198.888C140.275 198.888 141.875 200.248 141.875 202.264C141.875 204.264 140.275 205.64 138.035 205.64C135.811 205.64 134.195 204.264 134.195 202.264C134.195 200.248 135.811 198.888 138.035 198.888ZM138.035 200.008C136.563 200.008 135.475 200.92 135.475 202.264C135.475 203.592 136.563 204.52 138.035 204.52C139.523 204.52 140.595 203.592 140.595 202.264C140.595 200.92 139.523 200.008 138.035 200.008ZM143.763 197.832H145.075V212.216H143.763V197.832ZM133.635 209.064L133.475 207.96C136.083 207.96 139.683 207.944 142.819 207.464L142.931 208.44C139.699 209.032 136.227 209.064 133.635 209.064ZM155.484 207.528V203.736H152.476V207.528H155.484ZM155.484 202.696V199.192H156.716V208.584H151.228V199.192H152.476V202.696H155.484ZM161.66 197.832H162.908V212.184H161.66V204.584H159.724V211.48H158.492V198.152H159.724V203.512H161.66V197.832ZM175.45 201.544H171.866C170.938 203.848 168.762 205.528 165.674 206.424L165.146 205.384C168.57 204.36 170.698 202.456 170.938 199.976H165.882V198.92H172.362C172.362 199.448 172.298 199.976 172.202 200.472H175.45V197.848H176.778V206.424H175.45V204.536H171.69V203.464H175.45V201.544ZM172.09 211.096C174.202 211.096 175.546 210.44 175.546 209.352C175.546 208.28 174.202 207.624 172.09 207.624C169.978 207.624 168.634 208.28 168.634 209.352C168.634 210.44 169.978 211.096 172.09 211.096ZM172.09 206.584C174.986 206.584 176.842 207.624 176.842 209.352C176.842 211.08 174.986 212.12 172.09 212.12C169.194 212.12 167.338 211.08 167.338 209.352C167.338 207.624 169.194 206.584 172.09 206.584ZM194.051 197.832V206.072H192.739V197.832H194.051ZM188.467 203.576V199.8H184.323V203.576H188.467ZM189.747 198.76V204.632H183.043V198.76H189.747ZM194.387 208.056H190.195C190.211 209.432 192.435 210.824 194.899 211.128L194.451 212.136C192.291 211.832 190.371 210.84 189.523 209.512C188.659 210.872 186.675 211.832 184.515 212.136L184.083 211.128C186.531 210.84 188.819 209.48 188.835 208.056H184.643V207.048H188.851V205.656H190.179V207.048H194.387V208.056ZM210.06 197.832H211.372V212.216H210.06V197.832ZM203.804 198.936C205.932 198.936 207.452 200.888 207.452 203.944C207.452 207 205.932 208.952 203.804 208.952C201.676 208.952 200.156 207 200.156 203.944C200.156 200.888 201.676 198.936 203.804 198.936ZM203.804 200.12C202.396 200.12 201.404 201.624 201.404 203.944C201.404 206.28 202.396 207.784 203.804 207.784C205.196 207.784 206.188 206.28 206.188 203.944C206.188 201.624 205.196 200.12 203.804 200.12ZM217.419 207.768C218.523 207.768 219.323 206.856 219.323 205.576C219.323 204.328 218.523 203.416 217.419 203.416C216.299 203.416 215.515 204.328 215.515 205.576C215.515 206.856 216.299 207.768 217.419 207.768ZM217.419 202.312C219.195 202.312 220.491 203.656 220.491 205.576C220.491 207.528 219.195 208.856 217.419 208.856C215.643 208.856 214.347 207.528 214.347 205.576C214.347 203.656 215.643 202.312 217.419 202.312ZM218.059 198.248V200.28H220.971V201.352H213.851V200.28H216.763V198.248H218.059ZM224.763 197.816H226.027V212.168H224.763V204.952H222.923V211.48H221.691V198.152H222.923V203.88H224.763V197.816Z" fill="#2D2D2D"/>
<rect x="509" y="90" width="6" height="6" fill="#EB8C00"/>
<path d="M522.6 99V87.256H529.368V88.52H524.088V92.2H528.536V93.464H524.088V97.736H529.544V99H522.6ZM534.79 99.208C533.126 99.208 531.702 98.536 530.678 97.464L531.574 96.456C532.406 97.336 533.59 97.912 534.806 97.912C536.342 97.912 537.27 97.144 537.27 95.992C537.27 94.792 536.422 94.408 535.318 93.912L533.622 93.176C532.534 92.712 531.238 91.88 531.238 90.168C531.238 88.36 532.806 87.048 534.934 87.048C536.326 87.048 537.558 87.64 538.39 88.504L537.606 89.448C536.886 88.776 536.022 88.344 534.934 88.344C533.606 88.344 532.742 89.016 532.742 90.072C532.742 91.208 533.766 91.64 534.678 92.024L536.358 92.744C537.718 93.336 538.774 94.136 538.774 95.88C538.774 97.736 537.238 99.208 534.79 99.208ZM545.201 99.208C542.129 99.208 539.921 96.952 539.921 93.144C539.921 89.352 542.193 87.048 545.297 87.048C546.929 87.048 548.001 87.784 548.673 88.504L547.873 89.464C547.281 88.84 546.529 88.344 545.329 88.344C542.977 88.344 541.441 90.168 541.441 93.096C541.441 96.056 542.833 97.912 545.361 97.912C546.193 97.912 547.009 97.656 547.473 97.224V94.152H544.993V92.92H548.833V97.848C548.081 98.632 546.785 99.208 545.201 99.208ZM563.987 89.544H560.403C559.475 91.848 557.299 93.528 554.211 94.424L553.683 93.384C557.107 92.36 559.235 90.456 559.475 87.976H554.419V86.92H560.899C560.899 87.448 560.835 87.976 560.739 88.472H563.987V85.848H565.315V94.424H563.987V92.536H560.227V91.464H563.987V89.544ZM560.627 99.096C562.739 99.096 564.083 98.44 564.083 97.352C564.083 96.28 562.739 95.624 560.627 95.624C558.515 95.624 557.171 96.28 557.171 97.352C557.171 98.44 558.515 99.096 560.627 99.096ZM560.627 94.584C563.523 94.584 565.379 95.624 565.379 97.352C565.379 99.08 563.523 100.12 560.627 100.12C557.731 100.12 555.875 99.08 555.875 97.352C555.875 95.624 557.731 94.584 560.627 94.584ZM569.201 90.088C569.201 91.432 570.257 92.392 571.649 92.392C573.057 92.392 574.081 91.432 574.081 90.088C574.081 88.76 573.057 87.8 571.649 87.8C570.257 87.8 569.201 88.76 569.201 90.088ZM578.225 88.968H575.153C575.265 89.304 575.329 89.672 575.329 90.088C575.329 90.488 575.265 90.856 575.137 91.208H578.225V88.968ZM578.225 92.28H574.545C573.889 93.048 572.865 93.512 571.649 93.512C569.521 93.512 567.953 92.104 567.953 90.088C567.953 88.088 569.521 86.696 571.649 86.696C572.865 86.696 573.889 87.16 574.545 87.896H578.225V85.832H579.553V94.328H578.225V92.28ZM574.801 99.128C576.993 99.128 578.305 98.488 578.305 97.416C578.305 96.328 576.993 95.688 574.801 95.688C572.641 95.688 571.329 96.328 571.329 97.416C571.329 98.488 572.641 99.128 574.801 99.128ZM574.801 94.664C577.761 94.664 579.601 95.672 579.601 97.416C579.601 99.16 577.761 100.168 574.801 100.168C571.857 100.168 570.033 99.16 570.033 97.416C570.033 95.672 571.857 94.664 574.801 94.664ZM589.584 89.8H592.464V85.848H593.792V96.36H592.464V90.872H589.584V89.8ZM590.432 93.176L589.776 94.2C588.176 93.624 586.944 92.424 586.32 90.952C585.696 92.584 584.384 93.912 582.704 94.52L582.016 93.496C584.144 92.728 585.632 90.824 585.632 88.792V88.072H582.432V87H590.096V88.072H586.944V88.776C586.944 90.648 588.352 92.44 590.432 93.176ZM585.936 98.792H594.192V99.864H584.608V95.432H585.936V98.792ZM604.655 92.248L604.783 93.32C602.511 93.704 600.623 93.8 597.967 93.8H596.831V89.656H601.967V87.752H596.799V86.68H603.263V90.664H598.127V92.728C600.639 92.728 602.479 92.632 604.655 92.248ZM598.015 96.376V95.32H607.343V100.168H606.031V96.376H598.015ZM609.455 89.208H607.343V91.128H609.455V92.216H607.343V94.568H606.031V85.848H607.343V88.12H609.455V89.208ZM617.934 93.88L616.622 93.752C617.022 91.368 617.054 89.624 617.054 88.472H611.086V87.4H618.334V88.184C618.334 89.336 618.334 91.208 617.934 93.88ZM614.638 91.496V95.88C616.206 95.816 617.806 95.72 619.262 95.544L619.342 96.504C616.366 96.984 612.99 97.048 610.446 97.048L610.302 95.96C611.214 95.96 612.27 95.944 613.342 95.912V91.496H614.638ZM623.742 91.832V92.936H621.454V100.184H620.142V85.832H621.454V91.832H623.742ZM636.753 89.832V86.216H638.001V99.448H636.753V94.488H634.161V93.416H636.753V90.888H634.385C633.713 93.304 632.161 95.464 629.441 97.08L628.673 96.152C631.761 94.312 633.297 91.736 633.521 88.728H629.313V87.656H634.817C634.817 88.392 634.753 89.112 634.625 89.832H636.753ZM639.633 85.832H640.881V100.168H639.633V85.832ZM651.871 87.144V88.136H643.471V87.144H647.007V85.752H648.319V87.144H651.871ZM645.503 90.808C645.503 91.544 646.367 92.024 647.663 92.024C648.991 92.024 649.839 91.544 649.839 90.808C649.839 90.056 648.991 89.592 647.663 89.592C646.367 89.592 645.503 90.056 645.503 90.808ZM652.223 93.512L652.303 94.44C649.183 94.952 645.759 95 643.183 95L642.991 93.96C644.191 93.96 645.583 93.96 647.007 93.912V92.92C645.327 92.744 644.271 91.96 644.271 90.808C644.271 89.496 645.631 88.664 647.663 88.664C649.727 88.664 651.087 89.496 651.087 90.808C651.087 91.976 650.015 92.76 648.319 92.92V93.848C649.647 93.784 650.975 93.688 652.223 93.512ZM645.055 97.16V96.12H654.671V100.184H653.359V97.16H645.055ZM653.359 85.864H654.671V95.448H653.359V85.864ZM673.522 91.304L672.978 92.36C670.754 91.976 668.594 90.728 667.666 89C666.77 90.744 664.61 91.976 662.37 92.36L661.842 91.304C664.45 90.92 666.978 89.192 666.978 87.144V86.344H668.354V87.144C668.354 89.144 670.914 90.92 673.522 91.304ZM674.146 93.912L674.162 95H668.29V100.2H666.978V95H661.186V93.912H674.146ZM684.129 91.896L684.273 92.952C681.921 93.336 679.969 93.416 677.313 93.416H676.161V89.4H681.345V87.592H676.113V86.536H682.641V90.408H677.441V92.344C679.985 92.344 681.857 92.264 684.129 91.896ZM685.889 98.92V97.16H679.185V98.92H685.889ZM685.889 96.136V94.44H687.185V99.992H677.889V94.44H679.185V96.136H685.889ZM685.873 85.848H687.185V93.72H685.873V85.848Z" fill="#2D2D2D"/>
<rect x="509" y="118" width="6" height="6" fill="#EB8C00"/>
<path d="M522.6 127V115.256H529.368V116.52H524.088V120.2H528.536V121.464H524.088V125.736H529.544V127H522.6ZM534.79 127.208C533.126 127.208 531.702 126.536 530.678 125.464L531.574 124.456C532.406 125.336 533.59 125.912 534.806 125.912C536.342 125.912 537.27 125.144 537.27 123.992C537.27 122.792 536.422 122.408 535.318 121.912L533.622 121.176C532.534 120.712 531.238 119.88 531.238 118.168C531.238 116.36 532.806 115.048 534.934 115.048C536.326 115.048 537.558 115.64 538.39 116.504L537.606 117.448C536.886 116.776 536.022 116.344 534.934 116.344C533.606 116.344 532.742 117.016 532.742 118.072C532.742 119.208 533.766 119.64 534.678 120.024L536.358 120.744C537.718 121.336 538.774 122.136 538.774 123.88C538.774 125.736 537.238 127.208 534.79 127.208ZM545.201 127.208C542.129 127.208 539.921 124.952 539.921 121.144C539.921 117.352 542.193 115.048 545.297 115.048C546.929 115.048 548.001 115.784 548.673 116.504L547.873 117.464C547.281 116.84 546.529 116.344 545.329 116.344C542.977 116.344 541.441 118.168 541.441 121.096C541.441 124.056 542.833 125.912 545.361 125.912C546.193 125.912 547.009 125.656 547.473 125.224V122.152H544.993V120.92H548.833V125.848C548.081 126.632 546.785 127.208 545.201 127.208ZM563.987 117.544H560.403C559.475 119.848 557.299 121.528 554.211 122.424L553.683 121.384C557.107 120.36 559.235 118.456 559.475 115.976H554.419V114.92H560.899C560.899 115.448 560.835 115.976 560.739 116.472H563.987V113.848H565.315V122.424H563.987V120.536H560.227V119.464H563.987V117.544ZM560.627 127.096C562.739 127.096 564.083 126.44 564.083 125.352C564.083 124.28 562.739 123.624 560.627 123.624C558.515 123.624 557.171 124.28 557.171 125.352C557.171 126.44 558.515 127.096 560.627 127.096ZM560.627 122.584C563.523 122.584 565.379 123.624 565.379 125.352C565.379 127.08 563.523 128.12 560.627 128.12C557.731 128.12 555.875 127.08 555.875 125.352C555.875 123.624 557.731 122.584 560.627 122.584ZM569.201 118.088C569.201 119.432 570.257 120.392 571.649 120.392C573.057 120.392 574.081 119.432 574.081 118.088C574.081 116.76 573.057 115.8 571.649 115.8C570.257 115.8 569.201 116.76 569.201 118.088ZM578.225 116.968H575.153C575.265 117.304 575.329 117.672 575.329 118.088C575.329 118.488 575.265 118.856 575.137 119.208H578.225V116.968ZM578.225 120.28H574.545C573.889 121.048 572.865 121.512 571.649 121.512C569.521 121.512 567.953 120.104 567.953 118.088C567.953 116.088 569.521 114.696 571.649 114.696C572.865 114.696 573.889 115.16 574.545 115.896H578.225V113.832H579.553V122.328H578.225V120.28ZM574.801 127.128C576.993 127.128 578.305 126.488 578.305 125.416C578.305 124.328 576.993 123.688 574.801 123.688C572.641 123.688 571.329 124.328 571.329 125.416C571.329 126.488 572.641 127.128 574.801 127.128ZM574.801 122.664C577.761 122.664 579.601 123.672 579.601 125.416C579.601 127.16 577.761 128.168 574.801 128.168C571.857 128.168 570.033 127.16 570.033 125.416C570.033 123.672 571.857 122.664 574.801 122.664ZM586.144 117.56V118.248C586.144 120.536 587.296 122.904 589.232 123.944L588.48 124.936C587.088 124.152 586.064 122.696 585.536 120.968C585.04 122.792 584.032 124.392 582.624 125.24L581.856 124.264C583.792 123.112 584.896 120.6 584.896 118.248V117.56H582.24V116.472H584.896V114.344H586.16V116.472H588.8V117.56H586.144ZM590.016 119.496V114.168H591.264V127.432H590.016V120.584H587.824V119.496H590.016ZM592.896 113.832H594.16V128.168H592.896V113.832ZM604.271 117.832V114.216H605.519V127.448H604.271V122.488H601.679V121.416H604.271V118.888H601.903C601.231 121.304 599.679 123.464 596.959 125.08L596.191 124.152C599.279 122.312 600.815 119.736 601.039 116.728H596.831V115.656H602.335C602.335 116.392 602.271 117.112 602.143 117.832H604.271ZM607.151 113.832H608.399V128.168H607.151V113.832ZM612.206 118.136C612.206 119.496 613.262 120.392 614.734 120.392C616.19 120.392 617.246 119.496 617.246 118.136C617.246 116.792 616.19 115.864 614.734 115.864C613.262 115.864 612.206 116.792 612.206 118.136ZM615.39 121.464V123.896C616.702 123.832 618.03 123.752 619.262 123.576L619.374 124.536C616.334 125.048 612.99 125.096 610.462 125.096L610.286 123.992C611.422 123.992 612.734 123.976 614.078 123.944V121.464C612.206 121.24 610.926 119.928 610.926 118.136C610.926 116.12 612.51 114.76 614.734 114.76C616.926 114.76 618.526 116.12 618.526 118.136C618.526 119.928 617.23 121.224 615.39 121.464ZM623.758 119.752V120.856H621.486V128.184H620.174V113.816H621.486V119.752H623.758ZM633.345 114.888C635.585 114.888 637.185 116.248 637.185 118.264C637.185 120.264 635.585 121.64 633.345 121.64C631.121 121.64 629.505 120.264 629.505 118.264C629.505 116.248 631.121 114.888 633.345 114.888ZM633.345 116.008C631.873 116.008 630.785 116.92 630.785 118.264C630.785 119.592 631.873 120.52 633.345 120.52C634.833 120.52 635.905 119.592 635.905 118.264C635.905 116.92 634.833 116.008 633.345 116.008ZM639.073 113.832H640.385V128.216H639.073V113.832ZM628.945 125.064L628.785 123.96C631.393 123.96 634.993 123.944 638.129 123.464L638.241 124.44C635.009 125.032 631.537 125.064 628.945 125.064ZM647.743 115.08V117.656C647.743 120.184 649.375 122.792 651.391 123.8L650.575 124.84C649.055 124.024 647.759 122.344 647.103 120.376C646.479 122.472 645.151 124.264 643.535 125.128L642.751 124.072C644.815 123.016 646.447 120.264 646.447 117.656V115.08H647.743ZM656.335 119.656V120.744H653.967V128.184H652.655V113.848H653.967V119.656H656.335ZM667.662 116.936H664.126C663.23 119.192 661.038 120.728 657.87 121.48L657.39 120.408C660.894 119.592 662.894 117.88 663.134 115.608H658.142V114.536H664.558C664.558 115.016 664.51 115.464 664.414 115.912H667.662V113.832H668.99V121.16H667.662V119.672H663.918V118.648H667.662V116.936ZM661.07 127H669.47V128.04H659.774V124.344H667.678V122.872H659.742V121.816H668.99V125.336H661.07V127ZM679.069 117.56H681.901V113.848H683.229V122.392H681.901V118.632H679.069V117.56ZM679.869 120.824L679.213 121.848C677.613 121.272 676.381 120.088 675.757 118.616C675.149 120.28 673.821 121.624 672.141 122.264L671.453 121.224C673.597 120.44 675.069 118.504 675.069 116.44V115.944H671.869V114.888H679.533V115.944H676.381V116.44C676.381 118.28 677.789 120.088 679.869 120.824ZM678.493 127.16C680.653 127.16 681.965 126.552 681.965 125.512C681.965 124.472 680.653 123.848 678.493 123.848C676.333 123.848 675.021 124.472 675.021 125.512C675.021 126.552 676.333 127.16 678.493 127.16ZM678.493 122.84C681.437 122.84 683.277 123.816 683.277 125.512C683.277 127.208 681.437 128.184 678.493 128.184C675.549 128.184 673.709 127.208 673.709 125.512C673.709 123.816 675.549 122.84 678.493 122.84ZM689.82 117.56V118.248C689.82 120.536 690.972 122.904 692.908 123.944L692.156 124.936C690.764 124.152 689.74 122.696 689.212 120.968C688.716 122.792 687.708 124.392 686.3 125.24L685.532 124.264C687.468 123.112 688.572 120.6 688.572 118.248V117.56H685.916V116.472H688.572V114.344H689.836V116.472H692.476V117.56H689.82ZM693.692 119.496V114.168H694.94V127.432H693.692V120.584H691.5V119.496H693.692ZM696.572 113.832H697.836V128.168H696.572V113.832ZM707.946 117.832V114.216H709.194V127.448H707.946V122.488H705.354V121.416H707.946V118.888H705.578C704.906 121.304 703.354 123.464 700.634 125.08L699.866 124.152C702.954 122.312 704.49 119.736 704.714 116.728H700.506V115.656H706.01C706.01 116.392 705.946 117.112 705.818 117.832H707.946ZM710.826 113.832H712.074V128.168H710.826V113.832ZM730.477 119.304L729.933 120.36C727.709 119.976 725.549 118.728 724.621 117C723.725 118.744 721.565 119.976 719.325 120.36L718.797 119.304C721.405 118.92 723.933 117.192 723.933 115.144V114.344H725.309V115.144C725.309 117.144 727.869 118.92 730.477 119.304ZM731.101 121.912L731.117 123H725.245V128.2H723.933V123H718.141V121.912H731.101ZM741.084 119.896L741.228 120.952C738.876 121.336 736.924 121.416 734.268 121.416H733.116V117.4H738.3V115.592H733.068V114.536H739.596V118.408H734.396V120.344C736.94 120.344 738.812 120.264 741.084 119.896ZM742.844 126.92V125.16H736.14V126.92H742.844ZM742.844 124.136V122.44H744.14V127.992H734.844V122.44H736.14V124.136H742.844ZM742.828 113.848H744.14V121.72H742.828V113.848Z" fill="#2D2D2D"/>
<rect x="509" y="146" width="6" height="6" fill="#EB8C00"/>
<path d="M529.992 148.808L530.136 149.848C528.184 150.216 526.552 150.264 523.592 150.264H522.504V142.984H529.064V144.04H523.816V146.04H528.808V147.08H523.816V149.224C526.584 149.224 528.136 149.144 529.992 148.808ZM525.368 151.512V154.792H533.624V155.864H524.056V151.512H525.368ZM532.984 146.296H535.096V147.384H532.984V152.472H531.672V141.832H532.984V146.296ZM548.471 148.84L547.911 149.928C545.719 149.464 543.463 147.976 542.535 145.928C541.607 147.976 539.367 149.464 537.159 149.928L536.615 148.84C539.127 148.392 541.847 146.28 541.847 143.896V142.792H543.223V143.896C543.223 146.28 545.959 148.392 548.471 148.84ZM543.191 153.24H549.111V154.312H536.087V153.24H541.879V149.752H543.191V153.24ZM558.192 151.528V147.736H555.184V151.528H558.192ZM558.192 146.696V143.192H559.424V152.584H553.936V143.192H555.184V146.696H558.192ZM564.368 141.832H565.616V156.184H564.368V148.584H562.432V155.48H561.2V142.152H562.432V147.512H564.368V141.832ZM568.734 147.56L568.35 146.568C571.006 146.392 573.198 145.512 573.422 144.088H568.99V143.096H573.502V141.736H574.814V143.096H579.31V144.088H574.894C575.118 145.512 577.278 146.392 579.95 146.568L579.55 147.56C577.15 147.368 575.038 146.632 574.158 145.304C573.278 146.632 571.15 147.368 568.734 147.56ZM580.622 149.208H574.814V150.536H578.974V153.672H570.542V155.032H579.406V156.024H569.262V152.728H577.678V151.512H569.214V150.536H573.486V149.208H567.678V148.2H580.622V149.208ZM590.349 148.136L590.477 149.208C588.205 149.592 586.317 149.672 583.661 149.672H582.525V145.608H587.661V143.8H582.493V142.728H588.957V146.616H583.821V148.6C586.333 148.6 588.173 148.52 590.349 148.136ZM588.461 155.16C590.605 155.16 591.885 154.568 591.885 153.56C591.885 152.552 590.605 151.96 588.461 151.96C586.317 151.96 585.021 152.552 585.021 153.56C585.021 154.568 586.317 155.16 588.461 155.16ZM588.461 150.936C591.373 150.936 593.181 151.896 593.181 153.56C593.181 155.224 591.373 156.168 588.461 156.168C585.533 156.168 583.741 155.224 583.741 153.56C583.741 151.896 585.533 150.936 588.461 150.936ZM595.165 145.16H593.037V147.096H595.165V148.184H593.037V150.52H591.725V141.848H593.037V144.072H595.165V145.16ZM600.422 148.28L600.022 147.288C602.726 147.016 604.902 145.912 605.014 144.312H600.582V143.272H605.078V141.784H606.39V143.272H610.886V144.312H606.438C606.55 145.912 608.726 147.016 611.446 147.288L611.03 148.28C608.678 148.04 606.598 147.176 605.734 145.736C604.87 147.176 602.774 148.04 600.422 148.28ZM600.678 152.712V151.672H610.614V156.184H609.302V152.712H600.678ZM599.238 149.08H612.214V150.136H599.238V149.08ZM621.141 145.56H623.973V141.848H625.301V150.392H623.973V146.632H621.141V145.56ZM621.941 148.824L621.285 149.848C619.685 149.272 618.453 148.088 617.829 146.616C617.221 148.28 615.893 149.624 614.213 150.264L613.525 149.224C615.669 148.44 617.141 146.504 617.141 144.44V143.944H613.941V142.888H621.605V143.944H618.453V144.44C618.453 146.28 619.861 148.088 621.941 148.824ZM620.565 155.16C622.725 155.16 624.037 154.552 624.037 153.512C624.037 152.472 622.725 151.848 620.565 151.848C618.405 151.848 617.093 152.472 617.093 153.512C617.093 154.552 618.405 155.16 620.565 155.16ZM620.565 150.84C623.509 150.84 625.349 151.816 625.349 153.512C625.349 155.208 623.509 156.184 620.565 156.184C617.621 156.184 615.781 155.208 615.781 153.512C615.781 151.816 617.621 150.84 620.565 150.84ZM642.574 141.832V150.072H641.262V141.832H642.574ZM636.99 147.576V143.8H632.846V147.576H636.99ZM638.27 142.76V148.632H631.566V142.76H638.27ZM642.91 152.056H638.718C638.734 153.432 640.958 154.824 643.422 155.128L642.974 156.136C640.814 155.832 638.894 154.84 638.046 153.512C637.182 154.872 635.198 155.832 633.038 156.136L632.606 155.128C635.054 154.84 637.342 153.48 637.358 152.056H633.166V151.048H637.374V149.656H638.702V151.048H642.91V152.056ZM655.686 147.96L654.39 147.816C654.726 146.168 654.774 144.936 654.774 144.024H648.918V142.952H656.054V143.704C656.054 144.648 656.054 146.072 655.686 147.96ZM657.046 148.824L657.142 149.784C654.166 150.28 650.726 150.36 648.182 150.36L648.054 149.288C648.966 149.288 650.006 149.272 651.094 149.256V146.152H652.39V149.208C653.958 149.144 655.59 149.016 657.046 148.824ZM651.558 151.656V154.792H659.782V155.864H650.246V151.656H651.558ZM659.318 146.504H661.366V147.592H659.318V152.648H658.006V141.832H659.318V146.504ZM664.533 148.28V151.64C666.885 151.64 668.997 151.528 671.509 151.128L671.637 152.2C669.045 152.632 666.869 152.728 664.405 152.728H663.221V147.224H668.501V144.232H663.173V143.16H669.829V148.28H664.533ZM672.853 141.816H674.165V156.2H672.853V141.816Z" fill="#2D2D2D"/>
<rect x="509" y="174" width="6" height="6" fill="#EB8C00"/>
<path d="M522.6 183V171.256H529.368V172.52H524.088V176.2H528.536V177.464H524.088V181.736H529.544V183H522.6ZM534.79 183.208C533.126 183.208 531.702 182.536 530.678 181.464L531.574 180.456C532.406 181.336 533.59 181.912 534.806 181.912C536.342 181.912 537.27 181.144 537.27 179.992C537.27 178.792 536.422 178.408 535.318 177.912L533.622 177.176C532.534 176.712 531.238 175.88 531.238 174.168C531.238 172.36 532.806 171.048 534.934 171.048C536.326 171.048 537.558 171.64 538.39 172.504L537.606 173.448C536.886 172.776 536.022 172.344 534.934 172.344C533.606 172.344 532.742 173.016 532.742 174.072C532.742 175.208 533.766 175.64 534.678 176.024L536.358 176.744C537.718 177.336 538.774 178.136 538.774 179.88C538.774 181.736 537.238 183.208 534.79 183.208ZM545.201 183.208C542.129 183.208 539.921 180.952 539.921 177.144C539.921 173.352 542.193 171.048 545.297 171.048C546.929 171.048 548.001 171.784 548.673 172.504L547.873 173.464C547.281 172.84 546.529 172.344 545.329 172.344C542.977 172.344 541.441 174.168 541.441 177.096C541.441 180.056 542.833 181.912 545.361 181.912C546.193 181.912 547.009 181.656 547.473 181.224V178.152H544.993V176.92H548.833V181.848C548.081 182.632 546.785 183.208 545.201 183.208ZM563.523 171.784V171.624H555.043V170.568H564.819V171.784C564.819 172.936 564.819 174.104 564.419 175.576L563.139 175.432C563.523 173.96 563.523 172.904 563.523 171.784ZM559.923 183.144C562.179 183.144 563.619 182.536 563.619 181.544C563.619 180.52 562.179 179.912 559.923 179.912C557.683 179.912 556.243 180.52 556.243 181.544C556.243 182.536 557.683 183.144 559.923 183.144ZM559.923 178.904C562.979 178.904 564.931 179.88 564.931 181.544C564.931 183.176 562.979 184.168 559.923 184.168C556.866 184.168 554.931 183.176 554.931 181.544C554.931 179.88 556.866 178.904 559.923 178.904ZM560.131 176.52H566.435V177.576H553.522V176.52H558.819V173.768H560.131V176.52ZM577.761 182.936V180.968H570.705V182.936H577.761ZM577.761 179.944V178.056H579.057V183.992H569.409V178.056H570.705V179.944H577.761ZM578.689 175.688H580.753V176.76H567.713V175.688H577.377C577.777 173.928 577.777 172.648 577.777 171.56H569.377V170.488H579.073V171.528C579.073 172.632 579.073 173.912 578.689 175.688ZM587.872 176.04V171.976H583.84V176.04H587.872ZM589.152 170.92V177.096H582.56V170.92H589.152ZM588.528 183.144C590.656 183.144 591.952 182.52 591.952 181.496C591.952 180.456 590.656 179.848 588.528 179.848C586.4 179.848 585.12 180.456 585.12 181.496C585.12 182.52 586.4 183.144 588.528 183.144ZM588.528 178.808C591.44 178.808 593.264 179.784 593.264 181.496C593.264 183.192 591.44 184.184 588.528 184.184C585.632 184.184 583.808 183.192 583.808 181.496C583.808 179.784 585.632 178.808 588.528 178.808ZM593.104 173.416H595.232V174.504H593.104V178.312H591.792V169.848H593.104V173.416ZM607.747 175.96L606.451 175.816C606.787 174.168 606.835 172.936 606.835 172.024H600.979V170.952H608.115V171.704C608.115 172.648 608.115 174.072 607.747 175.96ZM609.107 176.824L609.203 177.784C606.227 178.28 602.787 178.36 600.243 178.36L600.115 177.288C601.027 177.288 602.067 177.272 603.155 177.256V174.152H604.451V177.208C606.019 177.144 607.651 177.016 609.107 176.824ZM603.619 179.656V182.792H611.843V183.864H602.307V179.656H603.619ZM611.379 174.504H613.427V175.592H611.379V180.648H610.067V169.832H611.379V174.504ZM616.594 176.28V179.64C618.946 179.64 621.058 179.528 623.57 179.128L623.698 180.2C621.106 180.632 618.93 180.728 616.466 180.728H615.282V175.224H620.562V172.232H615.234V171.16H621.89V176.28H616.594ZM624.914 169.816H626.226V184.2H624.914V169.816ZM633.345 170.888C635.585 170.888 637.185 172.248 637.185 174.264C637.185 176.264 635.585 177.64 633.345 177.64C631.121 177.64 629.505 176.264 629.505 174.264C629.505 172.248 631.121 170.888 633.345 170.888ZM633.345 172.008C631.873 172.008 630.785 172.92 630.785 174.264C630.785 175.592 631.873 176.52 633.345 176.52C634.833 176.52 635.905 175.592 635.905 174.264C635.905 172.92 634.833 172.008 633.345 172.008ZM639.073 169.832H640.385V184.216H639.073V169.832ZM628.945 181.064L628.785 179.96C631.393 179.96 634.993 179.944 638.129 179.464L638.241 180.44C635.009 181.032 631.537 181.064 628.945 181.064ZM657.364 169.832H658.676V184.216H657.364V169.832ZM651.108 170.936C653.236 170.936 654.756 172.888 654.756 175.944C654.756 179 653.236 180.952 651.108 180.952C648.98 180.952 647.46 179 647.46 175.944C647.46 172.888 648.98 170.936 651.108 170.936ZM651.108 172.12C649.7 172.12 648.708 173.624 648.708 175.944C648.708 178.28 649.7 179.784 651.108 179.784C652.5 179.784 653.492 178.28 653.492 175.944C653.492 173.624 652.5 172.12 651.108 172.12ZM664.722 179.768C665.826 179.768 666.626 178.856 666.626 177.576C666.626 176.328 665.826 175.416 664.722 175.416C663.602 175.416 662.818 176.328 662.818 177.576C662.818 178.856 663.602 179.768 664.722 179.768ZM664.722 174.312C666.498 174.312 667.794 175.656 667.794 177.576C667.794 179.528 666.498 180.856 664.722 180.856C662.946 180.856 661.65 179.528 661.65 177.576C661.65 175.656 662.946 174.312 664.722 174.312ZM665.362 170.248V172.28H668.274V173.352H661.154V172.28H664.066V170.248H665.362ZM672.066 169.816H673.33V184.168H672.066V176.952H670.226V183.48H668.994V170.152H670.226V175.88H672.066V169.816ZM677.169 174.136C677.169 175.496 678.225 176.392 679.697 176.392C681.153 176.392 682.209 175.496 682.209 174.136C682.209 172.792 681.153 171.864 679.697 171.864C678.225 171.864 677.169 172.792 677.169 174.136ZM680.353 177.464V179.896C681.665 179.832 682.993 179.752 684.225 179.576L684.337 180.536C681.297 181.048 677.953 181.096 675.425 181.096L675.249 179.992C676.385 179.992 677.697 179.976 679.041 179.944V177.464C677.169 177.24 675.889 175.928 675.889 174.136C675.889 172.12 677.473 170.76 679.697 170.76C681.889 170.76 683.489 172.12 683.489 174.136C683.489 175.928 682.193 177.224 680.353 177.464ZM688.721 175.752V176.856H686.449V184.184H685.137V169.816H686.449V175.752H688.721ZM702.116 176.84L701.46 177.864C699.86 177.288 698.628 176.104 697.988 174.616C697.38 176.264 696.068 177.576 694.388 178.2L693.7 177.16C695.828 176.408 697.316 174.488 697.316 172.456V171.88H694.116V170.808H701.78V171.88H698.628V172.456C698.628 174.296 700.036 176.104 702.116 176.84ZM695.876 180.264V179.208H705.476V184.2H704.148V180.264H695.876ZM704.148 169.832H705.476V178.424H704.148V174.648H701.348V173.576H704.148V169.832ZM714.371 183.16C716.611 183.16 717.955 182.6 717.955 181.624C717.955 180.648 716.611 180.088 714.371 180.088C712.115 180.088 710.787 180.648 710.787 181.624C710.787 182.6 712.115 183.16 714.371 183.16ZM714.371 179.064C717.459 179.064 719.283 179.976 719.283 181.624C719.283 183.272 717.459 184.168 714.371 184.168C711.299 184.168 709.459 183.272 709.459 181.624C709.459 179.976 711.299 179.064 714.371 179.064ZM712.387 175.256V176.936H716.371V175.256C715.779 175.352 715.107 175.416 714.371 175.416C713.651 175.416 712.979 175.352 712.387 175.256ZM710.675 172.76C710.675 173.784 712.083 174.408 714.371 174.408C716.659 174.408 718.067 173.784 718.067 172.76C718.067 171.72 716.659 171.112 714.371 171.112C712.083 171.112 710.675 171.72 710.675 172.76ZM717.667 176.936H720.867V177.992H707.875V176.936H711.091V174.92C709.955 174.456 709.331 173.736 709.331 172.76C709.331 171.08 711.267 170.088 714.371 170.088C717.491 170.088 719.411 171.08 719.411 172.76C719.411 173.72 718.771 174.456 717.667 174.904V176.936Z" fill="#2D2D2D"/>
<rect x="509" y="202" width="6" height="6" fill="#EB8C00"/>
<path d="M522.696 199.384H529.416C529.416 203.528 527.512 207.176 522.744 209.512L522.04 208.44C525.896 206.6 527.816 203.848 528.088 200.44H522.696V199.384ZM532.312 197.832H533.624V212.184H532.312V197.832ZM548.295 199.48V200.536H536.759V199.48H541.911V197.752H543.239V199.48H548.295ZM545.863 203.752C545.863 202.872 544.679 202.36 542.583 202.36C540.487 202.36 539.271 202.872 539.271 203.752C539.271 204.632 540.487 205.144 542.583 205.144C544.679 205.144 545.863 204.632 545.863 203.752ZM537.911 203.752C537.911 202.216 539.655 201.352 542.583 201.352C545.479 201.352 547.223 202.216 547.223 203.752C547.223 205.288 545.479 206.136 542.583 206.136C539.655 206.136 537.911 205.288 537.911 203.752ZM549.095 207.144V208.216H543.239V212.2H541.911V208.216H536.087V207.144H549.095ZM555.568 204.28V207.64C557.92 207.64 560.032 207.528 562.544 207.128L562.672 208.2C560.08 208.632 557.904 208.728 555.44 208.728H554.256V203.224H559.536V200.232H554.208V199.16H560.864V204.28H555.568ZM563.888 197.816H565.2V212.2H563.888V197.816ZM580.03 205.048L579.438 206.136C577.262 205.64 575.022 204.104 574.11 201.992C573.198 204.088 570.958 205.624 568.798 206.136L568.206 205.048C570.718 204.552 573.422 202.392 573.422 199.944V198.84H574.798V199.944C574.798 202.392 577.518 204.568 580.03 205.048ZM567.662 209.176H580.67V210.264H567.662V209.176ZM583.085 203.656L591.981 203.272C592.013 202.52 592.013 201.784 592.013 201.048V200.36H583.453V199.288H593.293V201.048C593.293 203.176 593.293 205.112 592.669 208.056L591.373 207.928C591.693 206.552 591.853 205.368 591.933 204.264L583.277 204.744L583.085 203.656ZM581.917 209.112H594.893V210.184H581.917V209.112ZM607.606 205.048L606.95 206.088C605.334 205.496 604.086 204.296 603.446 202.792C602.854 204.488 601.574 205.8 599.862 206.44L599.174 205.4C601.366 204.616 602.758 202.696 602.758 200.472V198.696H604.07V200.504C604.07 202.472 605.494 204.296 607.606 205.048ZM602.79 207.416V210.792H610.998V211.864H601.478V207.416H602.79ZM610.374 202.232H612.486V203.32H610.374V208.424H609.062V197.816H610.374V202.232ZM614.549 203.56L614.165 202.568C616.821 202.392 619.013 201.512 619.237 200.088H614.805V199.096H619.317V197.736H620.629V199.096H625.125V200.088H620.709C620.933 201.512 623.093 202.392 625.765 202.568L625.365 203.56C622.965 203.368 620.853 202.632 619.973 201.304C619.093 202.632 616.965 203.368 614.549 203.56ZM626.437 205.208H620.629V206.536H624.789V209.672H616.357V211.032H625.221V212.024H615.077V208.728H623.493V207.512H615.029V206.536H619.301V205.208H613.493V204.2H626.437V205.208Z" fill="#2D2D2D"/>
<rect x="986" y="90" width="6" height="6" fill="#FFB600"/>
<path d="M1000.13 92.808L999.632 91.768C1002.13 91.4 1004.61 89.752 1004.61 87.864V87.784H1000.08V86.728H1010.56V87.784H1006.06V87.864C1006.06 89.752 1008.54 91.4 1011.07 91.768L1010.56 92.808C1008.34 92.424 1006.21 91.224 1005.34 89.528C1004.46 91.224 1002.35 92.424 1000.13 92.808ZM1011.82 94.008L1011.84 95.08H1005.97V100.184H1004.66V95.08H998.864V94.008H1011.82ZM1017.58 93.88V97.256H1021.58V93.88C1020.97 94.024 1020.29 94.104 1019.57 94.104C1018.86 94.104 1018.17 94.024 1017.58 93.88ZM1019.57 87.768C1017.26 87.768 1015.61 88.824 1015.61 90.424C1015.61 92.024 1017.26 93.08 1019.57 93.08C1021.87 93.08 1023.53 92.024 1023.53 90.424C1023.53 88.824 1021.87 87.768 1019.57 87.768ZM1022.89 97.256H1026.11V98.344H1013.07V97.256H1016.27V93.384C1015.07 92.76 1014.35 91.72 1014.35 90.424C1014.35 88.184 1016.53 86.744 1019.57 86.744C1022.62 86.744 1024.78 88.184 1024.78 90.424C1024.78 91.72 1024.08 92.744 1022.89 93.368V97.256ZM1040.46 87.784V87.624H1031.98V86.568H1041.75V87.784C1041.75 88.936 1041.75 90.104 1041.35 91.576L1040.07 91.432C1040.46 89.96 1040.46 88.904 1040.46 87.784ZM1036.86 99.144C1039.11 99.144 1040.55 98.536 1040.55 97.544C1040.55 96.52 1039.11 95.912 1036.86 95.912C1034.62 95.912 1033.18 96.52 1033.18 97.544C1033.18 98.536 1034.62 99.144 1036.86 99.144ZM1036.86 94.904C1039.91 94.904 1041.86 95.88 1041.86 97.544C1041.86 99.176 1039.91 100.168 1036.86 100.168C1033.8 100.168 1031.86 99.176 1031.86 97.544C1031.86 95.88 1033.8 94.904 1036.86 94.904ZM1037.06 92.52H1043.37V93.576H1030.46V92.52H1035.75V89.768H1037.06V92.52ZM1049.75 87.08V89.656C1049.75 92.28 1051.46 94.92 1053.59 95.88L1052.81 96.936C1051.17 96.136 1049.8 94.44 1049.11 92.392C1048.45 94.552 1047.08 96.344 1045.4 97.208L1044.6 96.136C1046.71 95.128 1048.45 92.376 1048.45 89.656V87.08H1049.75ZM1055.09 85.832H1056.41V100.216H1055.09V85.832ZM1069.4 88.904H1066.09V90.488H1069.4V88.904ZM1064.79 91.704V89.576H1060.92V91.704H1064.79ZM1066.09 91.512V92.76H1059.62V86.504H1060.92V88.552H1064.79V86.52H1066.09V87.88H1069.4V85.848H1070.71V93.336H1069.4V91.512H1066.09ZM1062.79 98.952H1071.25V99.992H1061.49V96.44H1069.41V95.064H1061.46V94.024H1070.71V97.432H1062.79V98.952ZM1077.09 87.384H1083.81C1083.81 91.528 1081.9 95.176 1077.13 97.512L1076.43 96.44C1080.29 94.6 1082.21 91.848 1082.48 88.44H1077.09V87.384ZM1086.7 85.832H1088.01V100.184H1086.7V85.832ZM1091.76 92.184L1091.26 91.128C1093.8 90.792 1096.12 89.368 1096.12 87.624V87.608H1091.66V86.552H1102.28V87.608H1097.82V87.624C1097.82 89.368 1100.14 90.792 1102.67 91.128L1102.19 92.184C1099.85 91.832 1097.74 90.68 1096.97 89.016C1096.19 90.68 1094.08 91.832 1091.76 92.184ZM1093.42 95.8V98.792H1102.03V99.864H1092.11V95.8H1093.42ZM1090.44 93.224H1103.47V94.28H1097.72V97.192H1096.41V94.28H1090.44V93.224ZM1116.28 92.84L1115.62 93.864C1114.02 93.288 1112.79 92.104 1112.15 90.616C1111.54 92.264 1110.23 93.576 1108.55 94.2L1107.86 93.16C1109.99 92.408 1111.48 90.488 1111.48 88.456V87.88H1108.28V86.808H1115.94V87.88H1112.79V88.456C1112.79 90.296 1114.2 92.104 1116.28 92.84ZM1110.04 96.264V95.208H1119.64V100.2H1118.31V96.264H1110.04ZM1118.31 85.832H1119.64V94.424H1118.31V90.648H1115.51V89.576H1118.31V85.832ZM1128.53 99.16C1130.77 99.16 1132.12 98.6 1132.12 97.624C1132.12 96.648 1130.77 96.088 1128.53 96.088C1126.28 96.088 1124.95 96.648 1124.95 97.624C1124.95 98.6 1126.28 99.16 1128.53 99.16ZM1128.53 95.064C1131.62 95.064 1133.44 95.976 1133.44 97.624C1133.44 99.272 1131.62 100.168 1128.53 100.168C1125.46 100.168 1123.62 99.272 1123.62 97.624C1123.62 95.976 1125.46 95.064 1128.53 95.064ZM1126.55 91.256V92.936H1130.53V91.256C1129.94 91.352 1129.27 91.416 1128.53 91.416C1127.81 91.416 1127.14 91.352 1126.55 91.256ZM1124.84 88.76C1124.84 89.784 1126.24 90.408 1128.53 90.408C1130.82 90.408 1132.23 89.784 1132.23 88.76C1132.23 87.72 1130.82 87.112 1128.53 87.112C1126.24 87.112 1124.84 87.72 1124.84 88.76ZM1131.83 92.936H1135.03V93.992H1122.04V92.936H1125.25V90.92C1124.12 90.456 1123.49 89.736 1123.49 88.76C1123.49 87.08 1125.43 86.088 1128.53 86.088C1131.65 86.088 1133.57 87.08 1133.57 88.76C1133.57 89.72 1132.93 90.456 1131.83 90.904V92.936ZM1143.78 93.88L1142.47 93.752C1142.87 91.368 1142.9 89.624 1142.9 88.472H1136.93V87.4H1144.18V88.184C1144.18 89.336 1144.18 91.208 1143.78 93.88ZM1140.48 91.496V95.88C1142.05 95.816 1143.65 95.72 1145.11 95.544L1145.19 96.504C1142.21 96.984 1138.84 97.048 1136.29 97.048L1136.15 95.96C1137.06 95.96 1138.12 95.944 1139.19 95.912V91.496H1140.48ZM1149.59 91.832V92.936H1147.3V100.184H1145.99V85.832H1147.3V91.832H1149.59ZM1162.16 86.92V87.864H1153.92V86.92H1157.39V85.688H1158.7V86.92H1162.16ZM1155.93 90.2C1155.93 90.84 1156.75 91.24 1158.04 91.24C1159.32 91.24 1160.14 90.84 1160.14 90.2C1160.14 89.56 1159.32 89.176 1158.04 89.176C1156.75 89.176 1155.93 89.56 1155.93 90.2ZM1162.59 92.584L1162.67 93.416C1159.61 93.96 1156.22 93.976 1153.71 93.976L1153.56 93C1154.68 93 1156.01 93 1157.39 92.952V92.072C1155.72 91.944 1154.68 91.272 1154.68 90.2C1154.68 89.016 1156 88.312 1158.04 88.312C1160.06 88.312 1161.39 89.016 1161.39 90.2C1161.39 91.256 1160.35 91.928 1158.7 92.072V92.92C1160.01 92.856 1161.36 92.744 1162.59 92.584ZM1156.78 97.864V99.08H1165.29V100.024H1155.5V96.984H1163.45V95.864H1155.45V94.936H1164.75V97.864H1156.78ZM1164.75 89.496H1166.86V90.6H1164.75V94.312H1163.44V85.832H1164.75V89.496ZM1174.35 99.16C1176.59 99.16 1177.93 98.6 1177.93 97.624C1177.93 96.648 1176.59 96.088 1174.35 96.088C1172.09 96.088 1170.76 96.648 1170.76 97.624C1170.76 98.6 1172.09 99.16 1174.35 99.16ZM1174.35 95.064C1177.43 95.064 1179.26 95.976 1179.26 97.624C1179.26 99.272 1177.43 100.168 1174.35 100.168C1171.27 100.168 1169.43 99.272 1169.43 97.624C1169.43 95.976 1171.27 95.064 1174.35 95.064ZM1172.36 91.256V92.936H1176.35V91.256C1175.75 91.352 1175.08 91.416 1174.35 91.416C1173.63 91.416 1172.95 91.352 1172.36 91.256ZM1170.65 88.76C1170.65 89.784 1172.06 90.408 1174.35 90.408C1176.63 90.408 1178.04 89.784 1178.04 88.76C1178.04 87.72 1176.63 87.112 1174.35 87.112C1172.06 87.112 1170.65 87.72 1170.65 88.76ZM1177.64 92.936H1180.84V93.992H1167.85V92.936H1171.07V90.92C1169.93 90.456 1169.31 89.736 1169.31 88.76C1169.31 87.08 1171.24 86.088 1174.35 86.088C1177.47 86.088 1179.39 87.08 1179.39 88.76C1179.39 89.72 1178.75 90.456 1177.64 90.904V92.936Z" fill="#2D2D2D"/>
<rect x="986" y="118" width="6" height="6" fill="#FFB600"/>
<path d="M1000.13 120.808L999.632 119.768C1002.13 119.4 1004.61 117.752 1004.61 115.864V115.784H1000.08V114.728H1010.56V115.784H1006.06V115.864C1006.06 117.752 1008.54 119.4 1011.07 119.768L1010.56 120.808C1008.34 120.424 1006.21 119.224 1005.34 117.528C1004.46 119.224 1002.35 120.424 1000.13 120.808ZM1011.82 122.008L1011.84 123.08H1005.97V128.184H1004.66V123.08H998.864V122.008H1011.82ZM1017.58 121.88V125.256H1021.58V121.88C1020.97 122.024 1020.29 122.104 1019.57 122.104C1018.86 122.104 1018.17 122.024 1017.58 121.88ZM1019.57 115.768C1017.26 115.768 1015.61 116.824 1015.61 118.424C1015.61 120.024 1017.26 121.08 1019.57 121.08C1021.87 121.08 1023.53 120.024 1023.53 118.424C1023.53 116.824 1021.87 115.768 1019.57 115.768ZM1022.89 125.256H1026.11V126.344H1013.07V125.256H1016.27V121.384C1015.07 120.76 1014.35 119.72 1014.35 118.424C1014.35 116.184 1016.53 114.744 1019.57 114.744C1022.62 114.744 1024.78 116.184 1024.78 118.424C1024.78 119.72 1024.08 120.744 1022.89 121.368V125.256ZM1031.27 115.384H1037.99C1037.99 119.528 1036.09 123.176 1031.32 125.512L1030.62 124.44C1034.47 122.6 1036.39 119.848 1036.66 116.44H1031.27V115.384ZM1040.89 113.832H1042.2V128.184H1040.89V113.832ZM1052.2 119.96L1050.9 119.816C1051.24 118.168 1051.29 116.936 1051.29 116.024H1045.43V114.952H1052.57V115.704C1052.57 116.648 1052.57 118.072 1052.2 119.96ZM1053.56 120.824L1053.65 121.784C1050.68 122.28 1047.24 122.36 1044.69 122.36L1044.57 121.288C1045.48 121.288 1046.52 121.272 1047.61 121.256V118.152H1048.9V121.208C1050.47 121.144 1052.1 121.016 1053.56 120.824ZM1048.07 123.656V126.792H1056.29V127.864H1046.76V123.656H1048.07ZM1055.83 118.504H1057.88V119.592H1055.83V124.648H1054.52V113.832H1055.83V118.504ZM1069.4 116.904H1066.09V118.488H1069.4V116.904ZM1064.79 119.704V117.576H1060.92V119.704H1064.79ZM1066.09 119.512V120.76H1059.62V114.504H1060.92V116.552H1064.79V114.52H1066.09V115.88H1069.4V113.848H1070.71V121.336H1069.4V119.512H1066.09ZM1062.79 126.952H1071.25V127.992H1061.49V124.44H1069.41V123.064H1061.46V122.024H1070.71V125.432H1062.79V126.952ZM1086.73 122.68V120.04H1084.37V118.968H1086.73V117.464H1084.37V116.392H1086.73V113.848H1088.06V122.68H1086.73ZM1079.36 115.976V120.712C1080.06 120.696 1080.8 120.664 1081.52 120.632V115.976H1079.36ZM1084.67 120.376L1084.75 121.352C1081.98 121.784 1078.75 121.832 1076.43 121.832L1076.29 120.744C1076.83 120.744 1077.45 120.744 1078.09 120.728V115.976H1076.67V114.92H1084.22V115.976H1082.8V120.552C1083.44 120.504 1084.08 120.456 1084.67 120.376ZM1083.33 127.144C1085.5 127.144 1086.8 126.568 1086.8 125.56C1086.8 124.584 1085.5 123.992 1083.33 123.992C1081.15 123.992 1079.85 124.584 1079.85 125.56C1079.85 126.568 1081.15 127.144 1083.33 127.144ZM1083.33 122.984C1086.29 122.984 1088.11 123.912 1088.11 125.56C1088.11 127.224 1086.29 128.168 1083.33 128.168C1080.35 128.168 1078.54 127.224 1078.54 125.56C1078.54 123.912 1080.35 122.984 1083.33 122.984ZM1091.24 115.368H1097.8C1097.8 119.448 1095.93 123.144 1091.29 125.464L1090.57 124.44C1094.24 122.6 1096.2 119.848 1096.51 116.456H1091.24V115.368ZM1103.82 119.656V120.744H1101.52V128.184H1100.2V113.832H1101.52V119.656H1103.82ZM1113.77 120.296V117.928H1109.7V120.296H1113.77ZM1115.05 114.744V121.352H1108.41V114.744H1109.7V116.904H1113.77V114.744H1115.05ZM1114.39 127.144C1116.5 127.144 1117.8 126.536 1117.8 125.512C1117.8 124.488 1116.5 123.896 1114.39 123.896C1112.25 123.896 1110.97 124.488 1110.97 125.512C1110.97 126.536 1112.25 127.144 1114.39 127.144ZM1114.39 122.84C1117.3 122.84 1119.11 123.816 1119.11 125.512C1119.11 127.208 1117.3 128.184 1114.39 128.184C1111.46 128.184 1109.65 127.208 1109.65 125.512C1109.65 123.816 1111.46 122.84 1114.39 122.84ZM1118.95 117.448H1121.08V118.536H1118.95V122.472H1117.64V113.832H1118.95V117.448ZM1132.56 126.92V125.128H1125.97V126.92H1132.56ZM1132.56 124.104V122.36H1133.86V127.976H1124.68V122.36H1125.97V124.104H1132.56ZM1127.94 120.072V117.8H1124.07V120.072H1127.94ZM1132.55 113.848H1133.88V121.688H1132.55V118.44H1129.24V121.144H1122.77V114.584H1124.07V116.776H1127.94V114.584H1129.24V117.368H1132.55V113.848ZM1139.3 124.072V126.968H1147.94V128.04H1137.99V124.072H1139.3ZM1143.46 122.024H1149.3V123.096H1136.28V122.024H1142.13V120.456H1137.96V116.888H1146.34V115.32H1137.92V114.296H1147.64V117.864H1139.25V119.432H1147.94V120.456H1143.46V122.024ZM1158.02 121.88L1156.71 121.752C1157.11 119.368 1157.14 117.624 1157.14 116.472H1151.17V115.4H1158.42V116.184C1158.42 117.336 1158.42 119.208 1158.02 121.88ZM1154.72 119.496V123.88C1156.29 123.816 1157.89 123.72 1159.35 123.544L1159.43 124.504C1156.45 124.984 1153.07 125.048 1150.53 125.048L1150.39 123.96C1151.3 123.96 1152.35 123.944 1153.43 123.912V119.496H1154.72ZM1163.83 119.832V120.936H1161.54V128.184H1160.23V113.832H1161.54V119.832H1163.83ZM1168.71 115.384H1175.43C1175.43 119.528 1173.53 123.176 1168.76 125.512L1168.06 124.44C1171.91 122.6 1173.83 119.848 1174.11 116.44H1168.71V115.384ZM1178.33 113.832H1179.64V128.184H1178.33V113.832ZM1183.39 120.184L1182.89 119.128C1185.43 118.792 1187.75 117.368 1187.75 115.624V115.608H1183.29V114.552H1193.91V115.608H1189.45V115.624C1189.45 117.368 1191.77 118.792 1194.3 119.128L1193.82 120.184C1191.48 119.832 1189.37 118.68 1188.6 117.016C1187.82 118.68 1185.71 119.832 1183.39 120.184ZM1185.05 123.8V126.792H1193.66V127.864H1183.74V123.8H1185.05ZM1182.07 121.224H1195.1V122.28H1189.35V125.192H1188.04V122.28H1182.07V121.224ZM1209.87 113.832H1211.19V128.2H1209.87V113.832ZM1200.26 115.048H1201.55V118.84H1205.71V115.048H1207.01V124.728H1200.26V115.048ZM1201.55 119.88V123.656H1205.71V119.88H1201.55ZM1223.83 116.856V116.344H1215.03V115.272H1225.14V116.856C1225.14 118.68 1225.14 120.552 1224.63 123.24L1223.33 123.08C1223.83 120.52 1223.83 118.632 1223.83 116.856ZM1221.71 125.096H1226.66V126.168H1213.68V125.096H1216.87V120.344H1218.16V125.096H1220.42V120.344H1221.71V125.096Z" fill="#2D2D2D"/>
<rect x="986" y="146" width="6" height="6" fill="#FFB600"/>
<path d="M1003.97 144.392V146.216C1003.97 148.648 1005.7 151.128 1007.81 152.024L1007.07 153.08C1005.41 152.312 1004 150.664 1003.31 148.696C1002.66 150.792 1001.25 152.6 999.616 153.432L998.848 152.376C1000.91 151.4 1002.66 148.696 1002.66 146.216V144.392H999.328V143.304H1007.34V144.392H1003.97ZM1009.28 141.848H1010.59V156.184H1009.28V141.848ZM1025.28 146.552L1024.78 147.608C1022.59 147.24 1020.48 146.104 1019.57 144.456C1018.67 146.104 1016.56 147.24 1014.37 147.608L1013.87 146.552C1016.41 146.2 1018.89 144.6 1018.89 142.696V142.056H1020.24V142.696C1020.24 144.6 1022.72 146.2 1025.28 146.552ZM1014.53 152.568V151.496H1024.46V156.2H1023.15V152.568H1014.53ZM1020.22 149.032H1026.11V150.104H1013.09V149.032H1018.91V146.84H1020.22V149.032ZM1028.09 143.368H1034.65C1034.65 147.448 1032.78 151.144 1028.14 153.464L1027.42 152.44C1031.09 150.6 1033.05 147.848 1033.36 144.456H1028.09V143.368ZM1040.67 147.656V148.744H1038.37V156.184H1037.05V141.832H1038.37V147.656H1040.67ZM1053.07 145.832V146.888H1043.32V142.136H1044.64V145.832H1053.07ZM1048.04 155.112C1050.28 155.112 1051.63 154.52 1051.63 153.528C1051.63 152.504 1050.3 151.928 1048.04 151.928C1045.79 151.928 1044.46 152.504 1044.46 153.528C1044.46 154.52 1045.79 155.112 1048.04 155.112ZM1048.04 150.904C1051.1 150.904 1052.96 151.848 1052.96 153.528C1052.96 155.192 1051.1 156.136 1048.04 156.136C1044.99 156.136 1043.13 155.192 1043.13 153.528C1043.13 151.848 1044.99 150.904 1048.04 150.904ZM1041.58 148.552H1054.56V149.624H1041.58V148.552ZM1066.3 145.544H1062.72C1061.79 147.848 1059.61 149.528 1056.52 150.424L1056 149.384C1059.42 148.36 1061.55 146.456 1061.79 143.976H1056.73V142.92H1063.21C1063.21 143.448 1063.15 143.976 1063.05 144.472H1066.3V141.848H1067.63V150.424H1066.3V148.536H1062.54V147.464H1066.3V145.544ZM1062.94 155.096C1065.05 155.096 1066.4 154.44 1066.4 153.352C1066.4 152.28 1065.05 151.624 1062.94 151.624C1060.83 151.624 1059.48 152.28 1059.48 153.352C1059.48 154.44 1060.83 155.096 1062.94 155.096ZM1062.94 150.584C1065.84 150.584 1067.69 151.624 1067.69 153.352C1067.69 155.08 1065.84 156.12 1062.94 156.12C1060.04 156.12 1058.19 155.08 1058.19 153.352C1058.19 151.624 1060.04 150.584 1062.94 150.584ZM1071.51 146.088C1071.51 147.432 1072.57 148.392 1073.96 148.392C1075.37 148.392 1076.39 147.432 1076.39 146.088C1076.39 144.76 1075.37 143.8 1073.96 143.8C1072.57 143.8 1071.51 144.76 1071.51 146.088ZM1080.54 144.968H1077.47C1077.58 145.304 1077.64 145.672 1077.64 146.088C1077.64 146.488 1077.58 146.856 1077.45 147.208H1080.54V144.968ZM1080.54 148.28H1076.86C1076.2 149.048 1075.18 149.512 1073.96 149.512C1071.83 149.512 1070.27 148.104 1070.27 146.088C1070.27 144.088 1071.83 142.696 1073.96 142.696C1075.18 142.696 1076.2 143.16 1076.86 143.896H1080.54V141.832H1081.87V150.328H1080.54V148.28ZM1077.11 155.128C1079.31 155.128 1080.62 154.488 1080.62 153.416C1080.62 152.328 1079.31 151.688 1077.11 151.688C1074.95 151.688 1073.64 152.328 1073.64 153.416C1073.64 154.488 1074.95 155.128 1077.11 155.128ZM1077.11 150.664C1080.07 150.664 1081.91 151.672 1081.91 153.416C1081.91 155.16 1080.07 156.168 1077.11 156.168C1074.17 156.168 1072.35 155.16 1072.35 153.416C1072.35 151.672 1074.17 150.664 1077.11 150.664ZM1087.11 146.488V149.128H1094.44V146.488H1087.11ZM1091.43 153.272H1097.29V154.344H1084.28V153.272H1090.1V150.184H1085.82V142.856H1087.11V145.416H1094.44V142.856H1095.72V150.184H1091.43V153.272ZM1108.65 144.696V144.344H1099.9V143.272H1109.96V144.696C1109.96 146.472 1109.96 148.44 1109.42 151.336L1108.1 151.192C1108.65 148.44 1108.65 146.424 1108.65 144.696ZM1104.89 153.096H1111.51V154.168H1098.54V153.096H1103.58V147.96H1104.89V153.096ZM1117.78 143.064V145.64C1117.78 148.248 1119.41 150.856 1121.49 151.848L1120.73 152.888C1119.09 152.072 1117.78 150.36 1117.13 148.344C1116.5 150.472 1115.17 152.28 1113.56 153.144L1112.76 152.104C1114.84 151.064 1116.47 148.296 1116.47 145.64V143.064H1117.78ZM1123.27 141.832H1124.58V156.2H1123.27V147.768H1119.94V146.696H1123.27V141.832ZM1141.87 141.848V152.328H1140.56V141.848H1141.87ZM1131.71 146.36C1131.71 147.784 1132.77 148.776 1134.16 148.776C1135.58 148.776 1136.64 147.784 1136.64 146.36C1136.64 144.968 1135.58 143.976 1134.16 143.976C1132.77 143.976 1131.71 144.968 1131.71 146.36ZM1137.92 146.36C1137.92 148.44 1136.3 149.912 1134.16 149.912C1132.03 149.912 1130.43 148.44 1130.43 146.36C1130.43 144.296 1132.03 142.84 1134.16 142.84C1136.3 142.84 1137.92 144.296 1137.92 146.36ZM1133.95 154.792H1142.3V155.864H1132.64V151.256H1133.95V154.792ZM1145.53 147.784L1145.07 146.744C1147.61 146.472 1149.92 145.224 1149.98 143.624H1145.53V142.568H1156.14V143.624H1151.68C1151.74 145.224 1154.05 146.472 1156.59 146.744L1156.13 147.784C1153.77 147.496 1151.61 146.456 1150.83 144.888C1150.03 146.456 1147.89 147.496 1145.53 147.784ZM1150.81 155.128C1153.05 155.128 1154.4 154.568 1154.4 153.56C1154.4 152.568 1153.05 151.992 1150.81 151.992C1148.56 151.992 1147.23 152.568 1147.23 153.56C1147.23 154.568 1148.56 155.128 1150.81 155.128ZM1150.81 150.968C1153.87 150.968 1155.73 151.896 1155.73 153.56C1155.73 155.24 1153.87 156.168 1150.81 156.168C1147.74 156.168 1145.9 155.24 1145.9 153.56C1145.9 151.896 1147.74 150.968 1150.81 150.968ZM1144.33 148.664H1157.31V149.72H1144.33V148.664ZM1172.1 141.832H1173.41V156.216H1172.1V141.832ZM1165.85 142.936C1167.97 142.936 1169.49 144.888 1169.49 147.944C1169.49 151 1167.97 152.952 1165.85 152.952C1163.72 152.952 1162.2 151 1162.2 147.944C1162.2 144.888 1163.72 142.936 1165.85 142.936ZM1165.85 144.12C1164.44 144.12 1163.45 145.624 1163.45 147.944C1163.45 150.28 1164.44 151.784 1165.85 151.784C1167.24 151.784 1168.23 150.28 1168.23 147.944C1168.23 145.624 1167.24 144.12 1165.85 144.12ZM1178.92 152.072V154.968H1187.56V156.04H1177.61V152.072H1178.92ZM1183.08 150.024H1188.92V151.096H1175.89V150.024H1181.75V148.456H1177.57V144.888H1185.96V143.32H1177.54V142.296H1187.25V145.864H1178.87V147.432H1187.56V148.456H1183.08V150.024ZM1205.01 141.832V150.072H1203.69V141.832H1205.01ZM1199.42 147.576V143.8H1195.28V147.576H1199.42ZM1200.7 142.76V148.632H1194V142.76H1200.7ZM1205.34 152.056H1201.15C1201.17 153.432 1203.39 154.824 1205.85 155.128L1205.41 156.136C1203.25 155.832 1201.33 154.84 1200.48 153.512C1199.61 154.872 1197.63 155.832 1195.47 156.136L1195.04 155.128C1197.49 154.84 1199.77 153.48 1199.79 152.056H1195.6V151.048H1199.81V149.656H1201.13V151.048H1205.34V152.056ZM1215.4 143.08V145.656C1215.4 148.184 1217.03 150.792 1219.05 151.8L1218.23 152.84C1216.71 152.024 1215.42 150.344 1214.76 148.376C1214.14 150.472 1212.81 152.264 1211.19 153.128L1210.41 152.072C1212.47 151.016 1214.1 148.264 1214.1 145.656V143.08H1215.4ZM1223.99 147.656V148.744H1221.62V156.184H1220.31V141.848H1221.62V147.656H1223.99ZM1226.57 148.408V151.624C1228.07 151.608 1229.53 151.544 1231.25 151.24L1231.37 152.328C1229.43 152.648 1227.91 152.712 1226.21 152.712H1225.3V147.352H1228.97V144.472H1225.25V143.4H1230.23V148.408H1226.57ZM1232.9 145.576V142.104H1234.13V155.464H1232.9V150.216H1231.03V149.144H1232.9V146.648H1231.03V145.576H1232.9ZM1235.75 141.832H1237.01V156.184H1235.75V141.832Z" fill="#2D2D2D"/>
<rect x="986" y="174" width="6" height="6" fill="#FFB600"/>
<path d="M999.6 183V171.256H1006.37V172.52H1001.09V176.2H1005.54V177.464H1001.09V181.736H1006.54V183H999.6ZM1011.79 183.208C1010.13 183.208 1008.7 182.536 1007.68 181.464L1008.57 180.456C1009.41 181.336 1010.59 181.912 1011.81 181.912C1013.34 181.912 1014.27 181.144 1014.27 179.992C1014.27 178.792 1013.42 178.408 1012.32 177.912L1010.62 177.176C1009.53 176.712 1008.24 175.88 1008.24 174.168C1008.24 172.36 1009.81 171.048 1011.93 171.048C1013.33 171.048 1014.56 171.64 1015.39 172.504L1014.61 173.448C1013.89 172.776 1013.02 172.344 1011.93 172.344C1010.61 172.344 1009.74 173.016 1009.74 174.072C1009.74 175.208 1010.77 175.64 1011.68 176.024L1013.36 176.744C1014.72 177.336 1015.77 178.136 1015.77 179.88C1015.77 181.736 1014.24 183.208 1011.79 183.208ZM1022.2 183.208C1019.13 183.208 1016.92 180.952 1016.92 177.144C1016.92 173.352 1019.19 171.048 1022.3 171.048C1023.93 171.048 1025 171.784 1025.67 172.504L1024.87 173.464C1024.28 172.84 1023.53 172.344 1022.33 172.344C1019.98 172.344 1018.44 174.168 1018.44 177.096C1018.44 180.056 1019.83 181.912 1022.36 181.912C1023.19 181.912 1024.01 181.656 1024.47 181.224V178.152H1021.99V176.92H1025.83V181.848C1025.08 182.632 1023.79 183.208 1022.2 183.208ZM1034.67 173.576V174.232C1034.67 176.52 1035.83 178.856 1037.75 179.912L1037 180.888C1035.59 180.104 1034.59 178.664 1034.06 176.952C1033.56 178.776 1032.55 180.376 1031.15 181.208L1030.36 180.216C1032.3 179.08 1033.42 176.584 1033.42 174.232V173.576H1030.71V172.504H1033.42V170.36H1034.68V172.504H1037.37V173.576H1034.67ZM1041.47 169.832H1042.73V184.184H1041.47V176.712H1039.58V183.48H1038.35V170.152H1039.58V175.624H1041.47V169.832ZM1052.11 177.656H1055.23V169.848H1056.54V180.68H1055.23V178.696H1052.11V177.656ZM1048.67 179.752V176.504C1047.27 176.568 1045.95 176.584 1044.79 176.584L1044.62 175.512C1046.46 175.496 1048.73 175.48 1050.99 175.32C1051.27 173.752 1051.32 172.584 1051.34 171.768H1045.93V170.712H1052.62V171.256C1052.62 172.056 1052.62 173.4 1052.31 175.208C1052.86 175.16 1053.42 175.112 1053.93 175.032L1054.03 175.976C1052.73 176.216 1051.34 176.344 1049.98 176.44V179.752H1048.67ZM1048.04 182.792H1056.89V183.864H1046.75V179.496H1048.04V182.792ZM1059.32 186.04L1058.97 185.176C1059.98 184.728 1060.57 183.944 1060.57 183C1060.5 183.016 1060.46 183.016 1060.39 183.016C1059.83 183.016 1059.32 182.664 1059.32 181.992C1059.32 181.368 1059.83 180.968 1060.42 180.968C1061.19 180.968 1061.66 181.624 1061.66 182.696C1061.66 184.232 1060.76 185.432 1059.32 186.04ZM1073.98 173.88H1076.54V169.848H1077.86V180.456H1076.54V174.952H1073.98V173.88ZM1069.16 172.168V176.968C1069.88 176.952 1070.62 176.92 1071.35 176.888V172.168H1069.16ZM1074.68 176.6L1074.76 177.56C1071.91 178.056 1068.63 178.104 1066.23 178.104L1066.09 177C1066.63 177 1067.26 177 1067.9 176.984V172.168H1066.47V171.112H1074.06V172.168H1072.63V176.808C1073.34 176.744 1074.01 176.696 1074.68 176.6ZM1069.98 182.792H1078.23V183.864H1068.66V179.512H1069.98V182.792ZM1091.78 176.712V177.784H1081.93V171.144H1091.64V172.232H1083.22V176.712H1091.78ZM1080.26 181.16H1093.29V182.248H1080.26V181.16ZM1110.3 169.848V180.328H1108.99V169.848H1110.3ZM1100.14 174.36C1100.14 175.784 1101.19 176.776 1102.59 176.776C1104.01 176.776 1105.07 175.784 1105.07 174.36C1105.07 172.968 1104.01 171.976 1102.59 171.976C1101.19 171.976 1100.14 172.968 1100.14 174.36ZM1106.35 174.36C1106.35 176.44 1104.73 177.912 1102.59 177.912C1100.46 177.912 1098.86 176.44 1098.86 174.36C1098.86 172.296 1100.46 170.84 1102.59 170.84C1104.73 170.84 1106.35 172.296 1106.35 174.36ZM1102.38 182.792H1110.73V183.864H1101.07V179.256H1102.38V182.792ZM1113.96 175.784L1113.5 174.744C1116.04 174.472 1118.34 173.224 1118.41 171.624H1113.96V170.568H1124.57V171.624H1120.1C1120.17 173.224 1122.47 174.472 1125.02 174.744L1124.55 175.784C1122.2 175.496 1120.04 174.456 1119.26 172.888C1118.46 174.456 1116.31 175.496 1113.96 175.784ZM1119.24 183.128C1121.48 183.128 1122.82 182.568 1122.82 181.56C1122.82 180.568 1121.48 179.992 1119.24 179.992C1116.98 179.992 1115.66 180.568 1115.66 181.56C1115.66 182.568 1116.98 183.128 1119.24 183.128ZM1119.24 178.968C1122.3 178.968 1124.15 179.896 1124.15 181.56C1124.15 183.24 1122.3 184.168 1119.24 184.168C1116.17 184.168 1114.33 183.24 1114.33 181.56C1114.33 179.896 1116.17 178.968 1119.24 178.968ZM1112.76 176.664H1125.74V177.72H1112.76V176.664ZM1141.43 169.832H1142.75V184.216H1141.43V169.832ZM1135.18 170.936C1137.31 170.936 1138.83 172.888 1138.83 175.944C1138.83 179 1137.31 180.952 1135.18 180.952C1133.05 180.952 1131.53 179 1131.53 175.944C1131.53 172.888 1133.05 170.936 1135.18 170.936ZM1135.18 172.12C1133.77 172.12 1132.78 173.624 1132.78 175.944C1132.78 178.28 1133.77 179.784 1135.18 179.784C1136.57 179.784 1137.56 178.28 1137.56 175.944C1137.56 173.624 1136.57 172.12 1135.18 172.12ZM1148.25 180.072V182.968H1156.89V184.04H1146.94V180.072H1148.25ZM1152.41 178.024H1158.25V179.096H1145.23V178.024H1151.08V176.456H1146.91V172.888H1155.29V171.32H1146.87V170.296H1156.59V173.864H1148.2V175.432H1156.89V176.456H1152.41V178.024ZM1175.24 169.832V178.072H1173.93V169.832H1175.24ZM1169.66 175.576V171.8H1165.52V175.576H1169.66ZM1170.94 170.76V176.632H1164.24V170.76H1170.94ZM1175.58 180.056H1171.39C1171.4 181.432 1173.63 182.824 1176.09 183.128L1175.64 184.136C1173.48 183.832 1171.56 182.84 1170.72 181.512C1169.85 182.872 1167.87 183.832 1165.71 184.136L1165.28 183.128C1167.72 182.84 1170.01 181.48 1170.03 180.056H1165.84V179.048H1170.04V177.656H1171.37V179.048H1175.58V180.056ZM1186.54 171.08V173.656C1186.54 176.184 1188.18 178.792 1190.19 179.8L1189.38 180.84C1187.86 180.024 1186.56 178.344 1185.9 176.376C1185.28 178.472 1183.95 180.264 1182.34 181.128L1181.55 180.072C1183.62 179.016 1185.25 176.264 1185.25 173.656V171.08H1186.54ZM1195.14 175.656V176.744H1192.77V184.184H1191.46V169.848H1192.77V175.656H1195.14ZM1197.71 176.408V179.624C1199.21 179.608 1200.67 179.544 1202.4 179.24L1202.51 180.328C1200.57 180.648 1199.05 180.712 1197.36 180.712H1196.45V175.352H1200.11V172.472H1196.4V171.4H1201.37V176.408H1197.71ZM1204.05 173.576V170.104H1205.28V183.464H1204.05V178.216H1202.17V177.144H1204.05V174.648H1202.17V173.576H1204.05ZM1206.89 169.832H1208.16V184.184H1206.89V169.832Z" fill="#2D2D2D"/>
<defs>
<clipPath id="clip0_1619_15373">
<rect width="37" height="36" fill="white" transform="translate(406 109)"/>
</clipPath>
<clipPath id="clip1_1619_15373">
<rect width="37" height="36" fill="white" transform="translate(883 109)"/>
</clipPath>
</defs>
</svg>
