<svg width="20" height="20" viewBox="0 0 20 20" fill="none" xmlns="http://www.w3.org/2000/svg">
<g id="PwC_Funct_Icons_ChevronRight_Outline_Black_RGB 1">
<path id="Outline-v2" d="M6.36037 2.8595C6.4415 2.77437 6.55148 2.72656 6.66614 2.72656C6.78081 2.72656 6.89078 2.77437 6.97191 2.8595L13.7681 9.99889L6.97191 17.1383C6.9323 17.1829 6.88453 17.2188 6.83145 17.2436C6.77838 17.2684 6.72108 17.2818 6.66298 17.2829C6.60488 17.284 6.54717 17.2727 6.4933 17.2499C6.43942 17.227 6.39048 17.193 6.34939 17.1498C6.3083 17.1067 6.27591 17.0552 6.25415 16.9986C6.23239 16.942 6.2217 16.8814 6.22272 16.8204C6.22375 16.7594 6.23647 16.6992 6.26011 16.6434C6.28376 16.5877 6.31786 16.5375 6.36037 16.4959L12.545 9.99889L6.36037 3.50192C6.27934 3.41669 6.23383 3.30116 6.23383 3.18071C6.23383 3.06025 6.27934 2.94472 6.36037 2.8595Z" fill="#2D2D2D"/>
</g>
</svg>
