<svg width="20" height="20" viewBox="0 0 20 20" fill="none" xmlns="http://www.w3.org/2000/svg">
<g id="PwC_Funct_Icons_ChevronRight_Outline_Black_RGB 1">
<path id="Outline-v2" d="M6.36037 2.72029C6.4415 2.63926 6.55148 2.59375 6.66614 2.59375C6.78081 2.59375 6.89078 2.63926 6.97191 2.72029L13.7681 9.51645L6.97191 16.3126C6.9323 16.3551 6.88453 16.3892 6.83145 16.4129C6.77838 16.4365 6.72108 16.4492 6.66298 16.4503C6.60488 16.4513 6.54717 16.4406 6.4933 16.4188C6.43942 16.3971 6.39048 16.3647 6.34939 16.3236C6.3083 16.2825 6.27591 16.2336 6.25415 16.1797C6.23239 16.1258 6.2217 16.0681 6.22272 16.01C6.22375 15.9519 6.23647 15.8946 6.26011 15.8415C6.28376 15.7884 6.31786 15.7407 6.36037 15.7011L12.545 9.51645L6.36037 3.33183C6.27934 3.2507 6.23383 3.14073 6.23383 3.02606C6.23383 2.9114 6.27934 2.80142 6.36037 2.72029Z" fill="#D04A02"/>
</g>
</svg>
