<svg width="72" height="55" viewBox="0 0 72 55" fill="none" xmlns="http://www.w3.org/2000/svg">
<g clip-path="url(#clip0_2120_9935)">
<path d="M46.9943 36.7302C44.8537 37.1148 43.6862 38.6532 43.6862 41.4417C43.6862 44.2302 45.1456 46.1532 47.4808 46.1532C48.551 46.1532 49.524 45.7686 51.5673 44.8071V47.1148C49.1348 48.1725 47.6754 48.5571 45.7294 48.5571C43.5889 48.5571 42.1294 47.9802 40.8645 46.7302C39.5997 45.4802 39.0159 43.8456 39.0159 42.0186C39.0159 37.9802 42.0321 35.2879 46.5078 35.2879C49.4267 35.2879 51.47 36.634 51.47 38.5571C51.47 39.8071 50.497 40.6725 49.1348 40.6725C48.4537 40.6725 47.87 40.4802 47.0916 40.0956V36.7302H46.9943ZM36.1943 42.1148C38.1402 39.7109 38.8213 38.6532 38.8213 37.4994C38.8213 36.3456 37.8483 35.384 36.5835 35.384C35.8051 35.384 35.124 35.7686 34.7348 36.1532V41.1532L31.524 45.384V35.7686H28.5078L23.351 43.9417V35.6725H21.5997L17.0267 36.8263V37.9802L19.5564 38.2686V48.4609H22.7673L27.6321 40.5763V48.4609H31.2321L36.1943 42.1148ZM7.29698 38.2686C8.07536 38.1725 8.36725 38.1725 8.75644 38.1725C10.897 38.1725 12.0645 39.5186 12.0645 42.2109C12.0645 45.2879 10.7024 46.9225 8.07536 46.9225C7.88076 46.9225 7.68617 46.9225 7.39428 46.9225V38.2686H7.29698ZM7.29698 48.2686C8.17266 48.3648 8.95103 48.3648 9.43752 48.3648C13.8159 48.3648 16.5402 45.5763 16.5402 41.5379C16.5402 37.9802 14.497 35.4802 11.6754 35.4802C10.5078 35.4802 9.63212 35.7686 7.29698 37.1148V35.384H6.03212L0.972656 36.9225V38.1725H3.1132V52.4032L1.16725 52.884V54.0379H9.43752V52.884L7.29698 52.4032V48.2686ZM31.524 28.0763H44.1727V24.9994H31.524V28.0763ZM71.0267 17.9802V24.9994H44.1727V0.960938H57.8916V3.7494H60.7132V7.88401H67.4267V17.9802H71.0267ZM60.7132 8.94171V18.0763H66.4537V8.94171H60.7132ZM45.1456 17.9802H51.7618V15.4802H45.1456V17.9802ZM45.1456 7.88401H56.8213V4.71094H45.1456V7.88401ZM45.1456 8.94171V14.5186H52.7348V17.9802H56.8213V8.94171H45.1456ZM45.1456 23.9417H51.7618V18.9417H45.1456V23.9417ZM52.7348 23.9417H56.8213V18.9417H52.7348V23.9417ZM57.8916 23.9417H59.7402V18.9417H57.8916V23.9417ZM59.7402 17.9802V8.94171H57.8916V18.0763H59.7402V17.9802ZM57.8916 4.71094V7.88401H59.7402V4.71094H57.8916ZM45.1456 3.7494H56.8213V1.92248H45.1456V3.7494ZM66.4537 23.9417V18.9417H60.7132V23.9417H66.4537ZM70.0537 18.9417H67.524V23.9417H70.0537V18.9417Z" fill="white"/>
</g>
<defs>
<clipPath id="clip0_2120_9935">
<rect width="72" height="55" fill="white"/>
</clipPath>
</defs>
</svg>
