<svg width="153" height="23" viewBox="0 0 153 23" fill="none" xmlns="http://www.w3.org/2000/svg">
<path d="M0 16.2246H2.8055L3.46211 19.9617L3.87995 20.4174C4.1983 20.4579 4.5266 20.4985 4.86486 20.539C5.22301 20.5592 5.58115 20.5694 5.9393 20.5694C7.19282 20.5694 8.16778 20.3364 8.86419 19.8705C9.56059 19.3844 9.90879 18.7059 9.90879 17.8349C9.90879 17.0247 9.57054 16.3664 8.89403 15.86C8.73485 15.7384 8.59557 15.6372 8.47619 15.5561C8.35681 15.4751 8.17773 15.384 7.93897 15.2827C7.7002 15.1814 7.3719 15.0396 6.95406 14.8573C6.53622 14.675 5.9393 14.432 5.16331 14.1281C1.88028 12.8318 0.238766 10.8468 0.238766 8.17305C0.238766 7.20079 0.41784 6.32981 0.775989 5.56011C1.15404 4.77014 1.68131 4.10172 2.35781 3.55482C3.03432 2.98767 3.8501 2.55218 4.80516 2.24835C5.76023 1.94452 6.82473 1.7926 7.99866 1.7926C8.99352 1.7926 9.97843 1.88375 10.9534 2.06605C11.9482 2.24835 13.0923 2.56231 14.3856 3.00793V8.14267H11.61L11.0131 4.77014L10.6549 4.40555C10.3764 4.30427 10.0978 4.23338 9.81925 4.19287C9.56059 4.15235 9.25218 4.1321 8.89403 4.1321C7.75989 4.1321 6.86452 4.37516 6.20792 4.86129C5.57121 5.32717 5.25285 5.98547 5.25285 6.8362C5.25285 7.20079 5.30259 7.51475 5.40208 7.77807C5.50156 8.04139 5.69059 8.29458 5.96915 8.53765C6.24771 8.78071 6.6357 9.03391 7.13313 9.29723C7.63056 9.54029 8.26727 9.82387 9.04326 10.148C9.69987 10.4315 10.2669 10.6847 10.7445 10.9075C11.222 11.1303 11.6398 11.343 11.998 11.5456C12.3561 11.7481 12.6645 11.9507 12.9232 12.1532C13.2018 12.3558 13.4604 12.5685 13.6992 12.7913C14.5747 13.642 15.0124 14.8371 15.0124 16.3765C15.0124 17.3893 14.8134 18.3007 14.4155 19.111C14.0176 19.9212 13.4505 20.62 12.7143 21.2074C11.998 21.7745 11.1126 22.2202 10.058 22.5443C9.02336 22.8481 7.86933 23 6.59591 23C6.11838 23 5.6309 22.9797 5.13347 22.9392C4.65594 22.8987 4.15851 22.8278 3.64118 22.7266C3.12385 22.6455 2.56673 22.5341 1.96982 22.3923C1.3729 22.2505 0.716298 22.0683 0 21.8454V16.2246Z" fill="#464646"/>
<path d="M27.4047 20.8732C26.7879 21.258 26.2308 21.5821 25.7333 21.8454C25.2359 22.1088 24.7683 22.3316 24.3306 22.5139C23.9127 22.6759 23.5048 22.7873 23.1069 22.8481C22.7289 22.9291 22.3409 22.9696 21.9429 22.9696C21.3062 22.9696 20.7192 22.8683 20.182 22.6658C19.6647 22.4632 19.2071 22.1797 18.8091 21.8151C18.4311 21.4302 18.1326 20.9846 17.9137 20.4782C17.7148 19.9718 17.6153 19.4148 17.6153 18.8071C17.6153 18.0779 17.7645 17.4095 18.063 16.8018C18.3614 16.1739 18.7992 15.6574 19.3762 15.2523C19.6149 15.07 19.9333 14.8978 20.3312 14.7358C20.7292 14.5535 21.2465 14.3712 21.8832 14.1889C22.5199 13.9863 23.2959 13.7838 24.2112 13.5812C25.1265 13.3584 26.2109 13.1052 27.4644 12.8217V11.9406C27.4644 10.867 27.1659 10.1074 26.569 9.66182C25.992 9.19595 25.027 8.96301 23.674 8.96301V12.1229H20.1223C19.4856 12.1229 19.028 12.0317 18.7494 11.8494C18.4709 11.6671 18.3316 11.3633 18.3316 10.9379C18.3316 10.4113 18.5306 9.91502 18.9285 9.44914C19.3264 8.98327 19.8637 8.57816 20.5402 8.23382C21.2366 7.88947 22.0523 7.62616 22.9875 7.44386C23.9227 7.2413 24.9175 7.14003 25.9721 7.14003C28.3001 7.14003 30.0212 7.65654 31.1354 8.68956C31.3941 8.95288 31.6129 9.2162 31.792 9.47952C31.9711 9.72259 32.1004 10.0264 32.18 10.391C32.2795 10.7556 32.3491 11.1911 32.3889 11.6975C32.4287 12.2039 32.4486 12.8318 32.4486 13.5812V20.4174L32.7769 20.8124L34.4184 20.9643V22.5746H27.8225L27.4047 20.8732ZM27.4644 14.8269C27.0067 14.908 26.6386 14.9789 26.3601 15.0396C26.0815 15.0801 25.8428 15.1207 25.6438 15.1612C25.4647 15.2017 25.3055 15.2523 25.1663 15.3131C25.027 15.3536 24.8678 15.4042 24.6887 15.465C23.5347 15.9714 22.9577 16.7512 22.9577 17.8045C22.9577 18.4527 23.1566 18.9793 23.5546 19.3844C23.9525 19.7693 24.4798 19.9617 25.1364 19.9617C25.4747 19.9617 25.803 19.9212 26.1213 19.8402C26.4397 19.7591 26.8874 19.6072 27.4644 19.3844V14.8269Z" fill="#464646"/>
<path d="M35.8552 20.9643L37.4072 20.8124L37.7355 20.4174V10.4214H35.8552V8.96301L40.9887 7.17041H42.7197V9.14531C43.3764 8.78071 43.9633 8.46675 44.4806 8.20343C44.998 7.94011 45.4656 7.73756 45.8834 7.59577C46.3211 7.43373 46.7191 7.32232 47.0772 7.26156C47.4553 7.18054 47.8234 7.14003 48.1815 7.14003C48.9177 7.14003 49.5644 7.3122 50.1215 7.65654C50.6985 8.00088 51.2855 8.5579 51.8824 9.32761C52.5987 8.9225 53.2354 8.57816 53.7925 8.29458C54.3695 8.01101 54.8968 7.7882 55.3743 7.62616C55.8519 7.44386 56.2996 7.32232 56.7174 7.26156C57.1352 7.18054 57.5531 7.14003 57.9709 7.14003C59.4035 7.14003 60.4581 7.59577 61.1346 8.50727C61.8111 9.3985 62.1493 10.7961 62.1493 12.7001V20.4174L62.4478 20.8124L64.0893 20.9643V22.5746H55.643V20.9643L56.8069 20.8124L57.1651 20.4174V13.9458C57.1651 12.6495 56.9363 11.7481 56.4786 11.2417C56.021 10.7151 55.2052 10.4518 54.0313 10.4518C53.6532 10.4518 53.3448 10.472 53.1061 10.5125C52.8673 10.5328 52.6086 10.5834 52.3301 10.6645V20.4174L52.6882 20.8124L54.0014 20.9643V22.5746H45.9132V20.9643L46.9877 20.8124L47.3458 20.4174V13.5509C47.3458 11.424 46.3908 10.3606 44.4806 10.3606C44.2618 10.3606 44.033 10.3708 43.7942 10.391C43.5753 10.4113 43.2172 10.4619 42.7197 10.5429V20.4174L43.1077 20.8124L44.212 20.9643V22.5746H35.8552V20.9643Z" fill="#464646"/>
<path d="M65.3221 20.9643L67.083 20.8124L67.4113 20.4174V10.4214H65.5011V8.96301L70.6645 7.17041H72.3955V20.4174L72.7835 20.8124L74.6041 20.9643V22.5746H65.3221V20.9643ZM69.9183 0.0911499C70.7341 0.0911499 71.4007 0.35447 71.918 0.881109C72.4353 1.38749 72.694 2.04579 72.694 2.85601C72.694 3.66623 72.4254 4.34478 71.8881 4.89168C71.3708 5.41832 70.7042 5.68164 69.8885 5.68164C69.1125 5.68164 68.4658 5.41832 67.9485 4.89168C67.4511 4.36504 67.2024 3.69661 67.2024 2.88639C67.2024 2.05592 67.4511 1.38749 67.9485 0.881109C68.4459 0.35447 69.1025 0.0911499 69.9183 0.0911499Z" fill="#464646"/>
<path d="M75.7238 21.0251L77.4548 20.8124L77.8428 20.4174V3.22061H75.7835V1.76222L81.3049 0H82.8271V20.4174L83.2449 20.8124L85.0655 20.9643V22.5746H75.7238V21.0251Z" fill="#464646"/>
<path d="M94.1206 20.8124L96.1203 20.6909L96.5978 20.1136V4.52708L96.1203 4.07133L94.1206 3.9498V2.18758H110.536V7.26156H107.999L107.521 4.55746L107.104 4.22325H101.791V10.9683H104.925L105.372 10.5429L105.671 8.35535H107.79V15.8296H105.671L105.372 13.642L104.925 13.2166H101.791V20.539H108.029L108.447 20.0528L108.984 16.6803H111.461V22.5746H94.1206V20.8124Z" fill="#D04A02"/>
<path d="M114.224 16.2246H117.03L117.686 19.9617L118.104 20.4174C118.422 20.4579 118.751 20.4985 119.089 20.539C119.447 20.5592 119.805 20.5694 120.163 20.5694C121.417 20.5694 122.392 20.3364 123.088 19.8705C123.785 19.3844 124.133 18.7059 124.133 17.8349C124.133 17.0247 123.795 16.3664 123.118 15.86C122.959 15.7384 122.82 15.6372 122.7 15.5561C122.581 15.4751 122.402 15.384 122.163 15.2827C121.924 15.1814 121.596 15.0396 121.178 14.8573C120.76 14.675 120.163 14.432 119.387 14.1281C116.104 12.8318 114.463 10.8468 114.463 8.17305C114.463 7.20079 114.642 6.32981 115 5.56011C115.378 4.77014 115.905 4.10172 116.582 3.55482C117.258 2.98767 118.074 2.55218 119.029 2.24835C119.984 1.94452 121.049 1.7926 122.223 1.7926C123.218 1.7926 124.203 1.88375 125.177 2.06605C126.172 2.24835 127.316 2.56231 128.61 3.00793V8.14267H125.834L125.237 4.77014L124.879 4.40555C124.6 4.30427 124.322 4.23338 124.043 4.19287C123.785 4.15235 123.476 4.1321 123.118 4.1321C121.984 4.1321 121.089 4.37516 120.432 4.86129C119.795 5.32717 119.477 5.98547 119.477 6.8362C119.477 7.20079 119.527 7.51475 119.626 7.77807C119.726 8.04139 119.915 8.29458 120.193 8.53765C120.472 8.78071 120.86 9.03391 121.357 9.29723C121.855 9.54029 122.491 9.82387 123.267 10.148C123.924 10.4315 124.491 10.6847 124.969 10.9075C125.446 11.1303 125.864 11.343 126.222 11.5456C126.58 11.7481 126.889 11.9507 127.147 12.1532C127.426 12.3558 127.685 12.5685 127.923 12.7913C128.799 13.642 129.236 14.8371 129.236 16.3765C129.236 17.3893 129.038 18.3007 128.64 19.111C128.242 19.9212 127.675 20.62 126.938 21.2074C126.222 21.7745 125.337 22.2202 124.282 22.5443C123.247 22.8481 122.093 23 120.82 23C120.342 23 119.855 22.9797 119.358 22.9392C118.88 22.8987 118.383 22.8278 117.865 22.7266C117.348 22.6455 116.791 22.5341 116.194 22.3923C115.597 22.2505 114.94 22.0683 114.224 21.8454V16.2246Z" fill="#D04A02"/>
<path d="M145.539 14.6143L145.031 14.1889L142.703 14.037V12.3052H153V14.037L151.12 14.1889L150.642 14.6143V21.5416C149.269 22.048 148.016 22.4025 146.882 22.605C145.747 22.8278 144.544 22.9392 143.27 22.9392C141.579 22.9392 140.037 22.686 138.644 22.1797C137.271 21.6733 136.087 20.9643 135.093 20.0528C134.118 19.1211 133.361 18.007 132.824 16.7107C132.287 15.3941 132.018 13.9458 132.018 12.3659C132.018 10.7657 132.287 9.32761 132.824 8.05152C133.381 6.75517 134.157 5.65125 135.152 4.73976C136.167 3.82827 137.391 3.12946 138.823 2.64333C140.256 2.13694 141.858 1.88375 143.628 1.88375C144.186 1.88375 144.733 1.90401 145.27 1.94452C145.807 1.98503 146.354 2.05592 146.911 2.1572C147.469 2.23822 148.056 2.34963 148.672 2.49141C149.289 2.61295 149.946 2.77499 150.642 2.97754V8.50727H147.926L147.24 4.83091L146.703 4.34478C146.424 4.28402 146.195 4.23338 146.016 4.19287C145.857 4.15235 145.708 4.1321 145.568 4.1321C145.429 4.11184 145.29 4.10172 145.151 4.10172C145.031 4.08146 144.892 4.07133 144.733 4.07133C143.658 4.07133 142.683 4.27389 141.808 4.679C140.952 5.06385 140.216 5.61074 139.599 6.31968C138.982 7.02862 138.505 7.88948 138.167 8.90225C137.828 9.91502 137.659 11.0392 137.659 12.2748C137.659 14.2395 138.037 15.9005 138.793 17.2576C139.55 18.6147 140.644 19.587 142.076 20.1744C142.594 20.3972 143.101 20.5491 143.599 20.6301C144.116 20.6909 144.763 20.7213 145.539 20.7213V14.6143Z" fill="#D04A02"/>
</svg>
